<?xml version="1.0" encoding="utf-8"?>
<!-- Generator: Adobe Illustrator 22.0.1, SVG Export Plug-In . SVG Version: 6.00 Build 0)  -->
<svg version="1.1" id="Layer_1" xmlns="http://www.w3.org/2000/svg" xmlns:xlink="http://www.w3.org/1999/xlink" x="0px" y="0px"
	 viewBox="0 0 100 50" style="enable-background:new 0 0 100 50;" xml:space="preserve">
<style type="text/css">
	.st0{fill:#221F20;}
</style>
<path class="st0" d="M34.7,32c0,0-0.1,0-0.1,0.1c0.1,0,0.1,0.1,0.1,0.2C34.7,32.1,34.7,32.1,34.7,32 M17.6,34.8c0.2,0,0.2-0.1,0-0.1
	c-0.2,0-0.3,0-0.3,0.1C17.3,34.8,17.4,34.9,17.6,34.8 M29.7,29.8c0-0.1,0.1-0.1,0.2-0.1C30.3,29.5,29.8,30.1,29.7,29.8 M33,28.3
	c0,0,0-0.2,0-0.3c-0.5,0.2-1.1,0.5-1.7,0.7c0,0.2-0.1,0.3-0.2,0.4c-0.1,0-0.2-0.1-0.2-0.2c-1,0.4-2.2,0.7-3.5,1
	c-4.6,1.1-7.4,0.9-10,0.6c-0.4-0.1-0.8-0.1-0.8-0.1c0,0,0,0,0,0c0,0.2-0.3,0.1-0.4,0.1c-0.1,0.1-0.2,0.4-0.4,0.6
	c-0.1,0.1-0.1,0.1-0.2,0.1c-0.1,0.1-0.2,0.2-0.2,0.2c0,0,0,0,0.1,0c0,0,0.1,0,0.1,0c3.1,0.5,6.4,1,12.1-0.3c1.4-0.3,2.7-0.7,3.8-1.1
	c0,0,0.1,0,0.1,0c0.5-0.2,0.9-0.4,1.3-0.5c0,0-0.1,0-0.1,0c-0.1,0,0-0.1,0-0.1c0,0-0.1-0.4-0.1-0.4C32.5,29.1,32.9,28.6,33,28.3
	C33,28.3,33,28.3,33,28.3 M31.8,33.2C31.8,33.2,31.8,33.2,31.8,33.2C31.8,33.2,31.8,33.2,31.8,33.2C31.8,33.2,31.8,33.2,31.8,33.2
	 M63.4,24.2c0-0.1-0.3-0.2-0.7-0.3c-0.2,0-0.5-0.1-0.7-0.1c-1.7-0.3-3.3-0.5-5.4-0.5c-0.5,0-0.7,0.3-0.6,0.6
	c0.1,0.2,0.2,0.5,0.2,0.5c0.1,0.1,0.4-0.1,0.5,0.1c0,0,0,0,0,0c0,0,0.4,0,0.8,0.1c0.1,0,0.2,0,0.2,0c0.4,0,0.8,0,0.9,0
	c0,0,0.1,0,0.1,0c0,0,0.1,0,0.1,0c0,0,0.3,0.1,0.6,0.2c0.3,0,0.6,0,0.6-0.1c0-0.1,0-0.2,0-0.2c0,0,0.3-0.3,0.4-0.2
	c0.1,0,0.1,0.2,0,0.3c-0.1,0.2-0.1,0.3-0.1,0.3c0,0,0.3,0.1,0.6,0.2c0.2,0,0.4,0.1,0.6,0.1c0.1,0,0.1,0,0.1,0c0.1,0,0.1,0,0.2-0.1
	c0-0.1,0-0.2,0-0.2c0,0-0.1,0-0.1-0.1c0-0.1,0-0.3,0.1-0.2c0.2,0.1-0.1,0.1,0,0.3c0,0,0,0,0.1,0c0,0,0.1,0.1,0.1,0.2
	c0,0.1-0.1,0.2-0.1,0.2c0,0,0.2,0.1,0.5,0.1c0.3,0,0.5,0.1,0.5,0c0,0,0,0,0,0c0.1-0.3-0.2-0.3-0.2-0.5c0,0,0.1,0,0.1,0
	c0.1-0.2-0.2-0.2-0.1-0.3c0,0,0.1,0,0.2,0C63.3,24.4,63.4,24.3,63.4,24.2 M71.3,24.7C71.3,24.7,71.4,24.6,71.3,24.7
	c0.3,0,0.2,0.2,0,0.3C71.1,25,71.2,24.7,71.3,24.7 M66.5,25.3c-0.1,0.1-0.2-0.1-0.2-0.2c0-0.1,0-0.3,0.1-0.3c0,0,0.1,0,0.2,0
	c0.1,0,0.4,0.1,0.3,0.2c-0.1,0-0.1,0.1-0.2,0.2C66.5,25.1,66.5,25.2,66.5,25.3 M65.7,24.9c-0.1-0.1-0.2-0.3-0.1-0.4
	C65.8,24.2,66,25,65.7,24.9 M71.8,25c0-0.1,0.1-0.1,0.2-0.1c0,0,0,0.1,0,0.1c0,0.1,0.1,0.1,0.2,0.1c0.1,0,0.2-0.1,0.2-0.1
	c0,0,0,0,0,0c-0.1-0.2,0.2-0.3,0.2-0.5c0-0.1,0-0.2,0-0.4c0-0.2-0.4-0.3-0.7-0.2c-0.4,0.1-0.8,0.3-1,0.3c-0.2,0-0.4,0-0.4-0.1
	c0,0-0.4,0-0.8,0.1c-1,0.1-1.9,0.2-2.8,0.1c-0.5,0-0.8,0-0.8,0c0,0,0,0,0,0c0,0-0.1,0-0.1,0c0,0-0.4-0.1-0.9-0.1
	c-0.3,0-0.5-0.1-0.8-0.1c-0.4-0.1-0.8-0.1-0.8-0.1c0,0,0,0,0,0c0.1,0.1,0.6,0.3,0.3,0.4c-0.3,0.1,0.1,0.3,0.1,0.5
	c0,0.1-0.1-0.2-0.2-0.1c-0.2,0.1-0.1,0.1,0,0.2c0.1,0.1,0.3,0.2,0.4,0.2c0.1,0,0.2,0,0.2,0c0,0,0,0,0,0c-0.1-0.2,0.1-0.5,0.2-0.1
	c0,0,0,0.1,0,0.1c0,0.1,0.3,0.1,0.8,0.2c0.7,0.1,1.5,0.1,2.3,0.1c0.5,0,0.8,0,0.8,0c0,0,0-0.1-0.1-0.1c0-0.1-0.1-0.1,0-0.2
	c0,0,0-0.1,0-0.2c0-0.1,0.2-0.2,0.3,0.1c0.1,0.2,0.3,0.3,0.4,0.3c0.1,0,0.2,0,0.2,0c0,0,0,0,0,0.1c0,0,0.3,0,0.8,0
	c0.3,0,0.6-0.1,0.9-0.1C71.4,25.2,71.8,25.1,71.8,25 M71.6,28.4c0,0,0.1,0,0.1,0C71.8,28.4,71.7,28.4,71.6,28.4
	C71.6,28.4,71.6,28.4,71.6,28.4 M74,24.4c-0.1-0.1-0.3-0.1-0.4,0c-0.1,0-0.2,0.1-0.2,0.2c-0.1,0.2,0,0.3,0.2,0.2
	c0.1,0,0.2-0.1,0.3-0.1c0.1,0,0.1,0,0.2,0C74.2,24.7,74.2,24.5,74,24.4 M77.3,13.3c0-0.1-0.2,0-0.4,0.1c-0.2,0.1-0.4,0.2-0.4,0.3
	c0,0,0,0,0.1,0c0.2,0,0.6-0.2,0.6-0.2C77.3,13.4,77.3,13.3,77.3,13.3 M44.7,17.9c0.1,0,0.2-0.1,0.1-0.2c0,0-0.1-0.1-0.2,0
	c-0.1,0-0.1,0.1-0.1,0.1C44.6,17.8,44.6,17.9,44.7,17.9 M46,17.4C46.1,17.4,46.1,17.4,46,17.4C45.9,17.5,45.9,17.5,46,17.4
	 M86.8,8.6C86.8,8.6,86.9,8.6,86.8,8.6C86.9,8.6,86.9,8.5,86.8,8.6C86.9,8.5,86.8,8.6,86.8,8.6 M92,6.6c0.1,0,0.2-0.1,0.2-0.2
	c0-0.1-0.2-0.2-0.3-0.1C91.9,6.4,92,6.6,92,6.6 M62.2,25.1C62.2,25.1,62.2,25,62.2,25.1C62.2,25,62.2,25,62.2,25.1
	C62.2,25.1,62.2,25.1,62.2,25.1 M11,30.1c0-0.1,0.1-0.1,0.2-0.1C11.6,29.7,11.1,30.3,11,30.1 M15.6,30.5c0.2,0,0.3-0.1,0.3-0.1
	c0,0,0-0.1,0-0.1c0,0-0.1,0-0.1,0c-0.1,0-0.1,0-0.2,0c-3.1-0.5-6.3-1-12.1,0.3C3.1,30.7,2.9,31,3,31.4c0.1,0.3,0.4,0.5,0.7,0.4
	c5.2-1.2,8.1-0.9,11-0.4c0.1,0,0.1,0,0.2,0c0.1,0,0.2-0.1,0.3-0.2c0.1-0.1,0.1-0.2,0.1-0.3c0,0-0.1-0.2-0.1-0.2
	C15.4,30.6,15.5,30.5,15.6,30.5 M17.1,34.6C17,34.6,17,34.6,17.1,34.6C17,34.7,17,34.7,17.1,34.6C17,34.7,17.1,34.7,17.1,34.6
	C17.2,34.7,17.1,34.6,17.1,34.6 M34.7,22.9c-0.1,0.1-0.4,0-0.4-0.1C34.3,22.6,34.8,22.7,34.7,22.9 M33.5,23.5c0,0.1-0.5,0-0.4-0.1
	C33.1,23.4,33.5,23.3,33.5,23.5 M67.4,16.7c0.1,0.2-0.2,0.3-0.4,0.1C66.9,16.6,67.3,16.6,67.4,16.7 M68,16.5
	c-0.2,0.1-0.4,0.2-0.4,0.1c0-0.1,0.1-0.2,0.2-0.3C68,16.1,68.2,16.3,68,16.5 M75.4,14.4c0.1-0.4,0.3,0.3,0,0.2
	C75.4,14.5,75.4,14.4,75.4,14.4 M76,14.4c0.2,0.2-0.2,0.2-0.2,0.1C75.7,14.5,75.9,14.3,76,14.4 M44.2,18c0,0-0.2-0.3-0.2-0.3
	c-0.2,0,0,0.3-0.2,0.4c-0.2,0.2-0.5,0-0.5-0.1c-0.2-0.3,0.1-0.2,0.5-0.5c0.2-0.1,0-0.1,0.2-0.2c0.1,0,0.3,0.1,0.3,0.1
	c0,0,0.6-0.6,0.7-0.6c0.4,0,0.1,0.4,0.2,0.4c0,0.1,0.4,0.2,0.4,0.2c0.1,0,0.1-0.4,0.1-0.4c0.1-0.1,0.6-0.3,0.8-0.3
	c0.2,0,0.2,0.1,0.2,0.1c0.3,0,0.3-0.3,0.6-0.1c0,0,0,0.1-0.1,0.1c-0.1,0.1-0.2,0.1-0.1,0.2c0,0.1,0.1,0.1,0.2,0.1
	c0.1,0,0.2-0.2,0.2-0.3c0-0.1,0-0.2,0.1-0.2c0,0,0.1,0,0.3,0c0.1,0,0.4,0,0.4,0.1c0.1,0.1,0.2,0.2,0.4,0.1c0.2,0,0.3-0.1,0.3-0.2
	c0-0.1,0-0.1,0-0.2c0,0,0.2,0,0.3,0.1c0,0,0,0,0,0c0,0,0,0,0.1,0.1c0.1,0,0.3-0.1,0.6-0.2c0.2-0.1,0.7,0.1,1.2,0
	c3.8-0.6,6.2-0.2,8.8,0.3c0.9,0.2,1.9,0.3,2.9,0.4c0.4,0,0.8,0.1,0.7,0c0,0,0-0.4,0.3-0.4c0.2,0,0.5,0,0.6,0c0.1,0,0.3-0.2,0.3-0.1
	c0.2,0.1,0.2,0.1,0.3,0.2c0.1,0.2,0.4,0.4,0.9,0.4c1.7,0,3.7-0.3,6.1-0.9c0.1,0,0.2,0,0.3-0.1c0.1,0,0.3-0.1,0.4-0.2
	c0-0.1,0.1-0.1,0.2-0.1c0,0,0.2,0.2,0.3,0.1c0.1,0-0.1-0.1-0.1-0.2c0,0,0.1,0,0.1-0.1c0.1,0,0.1-0.1,0.1-0.2c0-0.1,0-0.2,0-0.2
	c0.4-0.3,0.8,0.1,0.6,0.4c0,0,0,0,0.1,0c0,0,0.1-0.1,0.2-0.1c0,0,0.4-0.1,0.9-0.2c0.1,0,0.3-0.1,0.4-0.1c0.4-0.1,0.8-0.3,0.7-0.3
	c0,0,0,0,0-0.1c0,0,0.1-0.1,0.1-0.2c0.1-0.1,0.1-0.2,0.1-0.2c0,0,0.1,0,0.1,0.1c0.1,0.1,0.3,0.1,0.7,0c0.3-0.1,0.6-0.3,0.6-0.3
	c0,0,0,0,0-0.1c0,0-0.1,0-0.1,0c0,0-0.1,0-0.1,0C77.2,14,77.5,13.9,77,14c-0.2,0-0.3-0.1-0.3-0.1c-0.3,0.1-0.4,0.4-0.5,0.4
	c-0.1,0-0.1-0.1,0-0.3c0.1-0.2,0-0.3,0-0.2c-0.1,0-0.1,0.1-0.2,0.1c0,0-0.4,0.1-0.8,0.3c-0.3,0.1-0.7,0.2-1.1,0.4
	c-0.4,0.1-0.8,0.3-0.8,0.3c0,0,0,0-0.1,0c0,0,0,0,0,0c0,0-0.3,0.1-0.6,0.1c-0.3,0.1-0.6,0.3-0.5,0.4c0,0.2-0.2,0.3-0.3,0.2
	c-0.2-0.2-0.6-0.3-1-0.2c-2.7,0.5-4.7,0.7-6.5,0.6c-0.4,0-0.9,0.1-1,0.2c-0.1,0.1-0.2,0.1-0.3,0c-0.1,0-0.1-0.1-0.1-0.2
	c0-0.1-0.3-0.2-0.8-0.3c-0.6-0.1-1.2-0.2-1.8-0.3c-3.1-0.5-6.4-1-12.1,0.3c-5.6,1.3-8.3,3.2-10.8,5c0.2,0,0.4-0.1,0.4,0.1
	c0,0-0.1,0.2-0.1,0.3c0,0,0,0,0,0.1c0,0,0,0,0-0.1c0,0-0.2,0.2-0.2,0.2c0,0.1,0.4,0.8-0.1,0.7c-0.2,0-0.5-0.3-0.5-0.3
	c0-0.1-0.1-0.5-0.1-0.5c0,0,0-0.1,0.1-0.1c-1.4,1-2.8,2-4.8,2.9c0,0.1,0,0.1-0.1,0.2c0,0,0,0.1,0,0.1c0,0,0,0,0-0.1
	c0,0-0.2,0.2-0.2,0.3c0,0.1,0.5,0.7,0,0.7c-0.2,0-0.6-0.1-0.6-0.2c0-0.1-0.2-0.5-0.2-0.5c0,0,0-0.1,0.1-0.2c-1.3,0.5-2.8,1-4.6,1.4
	c-5.6,1.3-8.5,0.8-11.7,0.3c-3.1-0.5-6.4-1-12.1,0.3c-0.3,0.1-0.5,0.4-0.5,0.7c0.1,0.3,0.4,0.5,0.7,0.4c2.8-0.7,4.9-0.9,6.7-0.8
	c0.4,0,0.9-0.1,1-0.1c0.1,0,0.5,0.1,1,0.2c1,0.1,2,0.3,2.9,0.4c0.2,0,0.3,0.1,0.5,0.1c0.3,0,0.5,0,0.6-0.1c0.1-0.1,0.1-0.1,0.2-0.1
	c0.5-0.2,0,0.1,0.4,0.1c0.3,0,0.6-0.3,0.8-0.3c0.1,0,0.1,0.2,0.3,0.2c0.3,0,0.1,0.1-0.2,0.3c-0.3,0.1-0.1,0.3,0.3,0.3
	c2.4,0.2,5.2,0.2,9.2-0.7c5.8-1.4,8.4-3.3,11-5.1c1.7-1.2,3.4-2.4,5.9-3.5C43.9,18.2,44.2,18,44.2,18C44.2,18,44.2,18,44.2,18
	 M73.3,15.9C73.3,15.9,73.3,15.9,73.3,15.9C73.4,15.9,73.4,15.8,73.3,15.9 M11.4,39.4c-0.3,0,0,0.5,0.2,0.4
	C11.5,39.6,11.5,39.4,11.4,39.4 M10.7,39.5c0.1-0.1-0.1-0.4-0.3-0.2c-0.1,0.1-0.1,0.1-0.1,0.2c-0.2-0.1-0.4-0.1-0.4-0.1
	c-0.1,0,0,0.1,0,0.2c0.2,0,0.3,0,0.5,0C10.5,39.6,10.6,39.6,10.7,39.5 M9.9,40.6c0.1,0.1,0.3-0.1,0.2-0.3C10,40.4,9.8,40.6,9.9,40.6
	 M10.5,41.4c-0.1,0.2,0.2,0.1,0.3,0C10.8,41.2,10.6,41.3,10.5,41.4 M11.8,42.3c0.1,0,0.2,0.1,0.3,0.1C12.3,42.3,11.8,42.3,11.8,42.3
	c0-0.1-0.1-0.2-0.1-0.2c-0.1-0.1-0.3,0.1-0.3,0.1c0,0,0,0.2,0.1,0.2C11.5,42.5,11.7,42.3,11.8,42.3 M16.7,40.3
	c0.1-0.1-0.2-0.3-0.3-0.2C16.2,40.4,16.6,40.5,16.7,40.3 M16.3,41.9c-0.1,0.1-0.1,0-0.2,0.1c0.1,0.2,0.4-0.2,0.3-0.3
	C16.3,41.8,16.4,41.9,16.3,41.9 M92.2,5.5c0,0.1,0.1,0.1,0.2,0c0-0.1,0-0.2-0.1-0.2C92.2,5.3,92.1,5.4,92.2,5.5 M10.5,40.9
	c-0.3,0.2,0.2,0.1,0.2,0C10.7,40.7,10.5,40.8,10.5,40.9 M12.1,41.4c0,0.2,0.4,0.1,0.4,0.1c0.1,0,0.3-0.4,0.3-0.4
	c0,0-0.2-0.2-0.3-0.2c-0.1,0-0.2,0.1-0.3,0.1c-0.1,0.1,0,0.1,0,0.2C12.2,41.3,12.1,41.3,12.1,41.4 M13.4,40.6
	c-0.1,0.1-0.2,0.2-0.1,0.2c0,0.1,0.1,0,0.2,0.1c0.1,0,0.1,0.1,0.2,0.1c0,0,0.1-0.3,0-0.4C13.6,40.6,13.5,40.5,13.4,40.6 M38.5,29.5
	c0,0,0.1,0,0.1,0c0,0,0.1-0.1,0.1-0.1C38.6,29.5,38.6,29.5,38.5,29.5 M13.7,35.3C13.7,35.3,13.7,35.3,13.7,35.3
	C13.7,35.3,13.6,35.3,13.7,35.3 M14.2,38.4c0,0,0.1,0.1,0.1,0C14.4,38.4,14.2,38.3,14.2,38.4 M9.6,40.5C9.3,40.6,9.7,40.7,9.6,40.5
	 M40.1,25C40.2,24.9,40.2,24.9,40.1,25c-0.1,0-0.2,0-0.2,0c0,0,0,0.1,0,0.1C39.9,25.1,40,25,40.1,25 M47,25.6c0,0-0.1,0-0.2-0.1
	C46.6,25.2,47,25.4,47,25.6 M36.5,31.6c0.2-0.1,0.1-0.2,0.3-0.3c0.2,0,0.4,0.2,0.5,0.6c0.5-0.3,1-0.6,1.4-1c0,0,0,0,0,0
	c0,0,0.1,0,0.1,0c0.2-0.2,0.5-0.3,0.7-0.5c2.2-1.6,4.3-3.1,8.4-4.4c0.4-0.1,0.7-0.4,0.8-0.6c0-0.2,0.3,0,0.3,0.1
	c0.1,0.1,0.3,0.1,0.6,0c0.2,0,0.3-0.1,0.5-0.1c1.7-0.4,3.1-0.6,4.4-0.7c0.4,0,0.8-0.1,0.8-0.1c0,0,0.1,0,0.1,0c0,0,0.1,0,0.1-0.1
	c0,0,0,0,0-0.1c0.1-0.3-0.2-0.7-0.2-0.8c0-0.1,0.1-0.1,0.1-0.1c0.1-0.1-0.3-0.1-0.7-0.1c-1.4,0.1-3.1,0.3-5,0.8
	c-1,0.2-1.9,0.5-2.8,0.8c-0.4,0.1-0.7,0.4-0.7,0.5c0,0.1,0,0.1-0.2,0c0,0-0.1,0-0.1-0.1c0-0.1-0.4,0-0.8,0.2c-2.6,1-4.4,2.2-6,3.4
	c0.1,0,0.3,0,0.4,0c0,0,0.2,0.3,0.2,0.4c-0.1,0.2-0.4-0.1-0.6-0.1c0.1,0-0.5,0.2-0.5,0.2c-0.1,0.1,0,0.2,0.1,0.2c0,0,0-0.1,0-0.1
	c0,0.1,0,0.1,0,0.1c-0.1,0.2-0.3,0.4-0.5,0.4c0,0-0.3-0.1-0.4-0.1c-0.7,0.5-1.5,1-2.3,1.5c0,0,0,0,0,0c0.1,0-0.1,0.1,0.1,0.2
	C36,31.7,36.5,31.6,36.5,31.6 M7.9,41C8,41,8.1,40.7,8,40.6C7.9,40.5,7.7,40.9,7.9,41 M14,37.4c-0.1,0.2,0.2,0,0.1-0.1
	C14.1,37.3,14,37.3,14,37.4 M8.6,41c-0.1,0-0.4,0.1-0.4,0.3c0.2,0.1,0.5,0.1,0.7,0.2c0-0.2,0-0.5-0.2-0.5C8.7,40.9,8.6,41,8.6,41
	 M13.6,37.7c0.2,0.2,0.4-0.4,0.1-0.2C13.6,37.6,13.5,37.6,13.6,37.7 M13,35.3C13,35.3,13,35.3,13,35.3c0.1,0,0.3-0.1,0.2-0.1
	C13.1,35.1,13.1,35.2,13,35.3C13,35.2,13,35.2,13,35.3 M19.7,45.1c0,0-0.1,0.2,0,0.2C19.9,45.3,19.8,44.9,19.7,45.1 M13.3,43.9
	c0,0-0.1,0.1,0,0.2C13.5,44.3,13.5,43.7,13.3,43.9 M7.2,47.7c-0.1,0-0.1,0.1-0.2,0.2c0,0,0,0,0,0C7.2,47.8,7.2,47.7,7.2,47.7
	 M32.9,47.8C32.9,47.8,32.9,47.7,32.9,47.8c-0.1,0-0.1,0-0.1,0C32.9,47.8,32.9,47.8,32.9,47.8 M14.5,44C14.7,44.2,14.7,43.7,14.5,44
	 M18.3,46.8c-0.2,0.3,0.4,0.1,0.3-0.1C18.6,46.7,18.4,46.7,18.3,46.8 M17.7,46.6c-0.2,0.2,0.2,0.5,0.3,0.2
	C18,46.8,17.8,46.6,17.7,46.6C17.7,46.5,17.7,46.6,17.7,46.6 M74.4,37.3C74.4,37.3,74.4,37.3,74.4,37.3
	C74.4,37.2,74.4,37.2,74.4,37.3 M18.2,44.8c-0.1-0.2-0.2,0.1-0.4,0.2C18,45.1,18,44.8,18.2,44.8 M15.1,46.8c0.1,0.1,0.2,0,0.4,0
	C15.3,46.7,15.2,46.7,15.1,46.8C15,46.7,15.1,46.8,15.1,46.8 M17.5,45.3c0,0-0.1,0.1-0.1,0c-0.1,0-0.1-0.1-0.2-0.1
	c-0.2,0.1-0.1,0.2-0.2,0.4c-0.4-0.2,0.1,0.8,0.1,0.1c0.1-0.1,0.1,0.1,0.2,0.1c0.1,0,0.3-0.2,0.4-0.2c0.2-0.1,0.4,0,0.5-0.1
	c0-0.1,0-0.2,0-0.3c-0.1,0-0.1,0.1-0.2,0.1c0,0-0.2,0.1-0.3,0C17.7,45.4,17.6,45.3,17.5,45.3 M85.6,33.9C85.5,34,85.5,34,85.6,33.9
	C85.7,33.9,85.7,33.8,85.6,33.9 M90.5,29.7c0.1-0.1-0.1-0.2-0.1-0.1C90.3,29.6,90.4,29.7,90.5,29.7 M97.2,27c-0.2-0.1,0-0.3,0.2-0.3
	C97.6,26.5,97.4,27.1,97.2,27 M92.7,28c-0.4,0.2-0.7,0.5-0.6,0.6c0.1,0.1,0.2,0.1,0.2,0.1c0.3,0,0.2-0.4,0.5-0.5
	c0.2-0.1,1,0.1,1.1,0.3c0.1,0.1-0.1,0.1-0.1,0.3c0,0,0,0,0,0c0,0,0.3-0.1,0.8-0.3c0.4-0.1,0.8-0.3,1.3-0.4c0.4-0.1,0.7-0.4,0.7-0.5
	c0-0.1,0-0.2,0-0.3c0.1-0.1,0.2,0,0.4,0.1c0.2,0.1,0.6,0.1,0.9,0.1c0.2,0,0.4-0.1,0.6-0.1c0.3-0.1,0.5-0.4,0.5-0.7
	c-0.1-0.3-0.4-0.5-0.7-0.5C96,26.7,94.2,27.4,92.7,28 M86.2,27.1c-0.6,0.4-1.1,0.8-1.7,1.2c-0.4,0.3-0.7,0.5-0.6,0.5c0,0,0,0,0,0.1
	c0,0.1,0.1,0.2,0.1,0.3c0,0.2,0,0.3,0,0.4c0,0,0,0.1,0,0.2c0,0.1,0,0.2,0.1,0.2c0.1,0,0.4-0.1,0.7-0.4c0.3-0.2,0.6-0.4,0.6-0.4
	c0,0,0-0.1,0.1-0.1c0.1,0,0.2-0.1,0.3-0.1c0.1-0.1,0.3-0.3,0.4-0.4c0.1-0.1,0.4-0.2,0.5-0.2c0.1,0,0.1-0.1,0.2-0.1
	c1.2-0.8,2.3-1.6,3.7-2.4c0.4-0.2,0.7-0.4,0.8-0.4c0,0,0,0,0,0c0,0,0,0,0.1,0c0,0,0.2,0,0.4-0.1c0.2-0.1,0.3-0.3,0.5-0.3
	c0.1,0,0.2,0,0.2,0c0,0,0.3-0.1,0.8-0.3c1.2-0.5,2.6-0.9,4.2-1.3c0.3-0.1,0.5-0.4,0.5-0.7c-0.1-0.3-0.4-0.5-0.7-0.4
	C91.5,23.3,88.8,25.2,86.2,27.1 M90.2,30.6c0,0.1,0.1,0.1,0.3,0c0.1-0.1,0.1-0.2,0-0.2c-0.1,0-0.2,0-0.2,0.1
	C90.2,30.5,90.2,30.6,90.2,30.6 M86.5,33.1c-0.1,0.2-0.7,0-0.6-0.2C86.2,32.6,86.7,32.9,86.5,33.1 M87.5,31.3c-0.1,0-0.1-0.1-0.2,0
	c0,0,0,0,0,0c0,0-0.1,0.1-0.1,0.1c-0.1,0.1-0.1,0.1-0.1,0.1c0,0,0,0,0,0c0,0,0,0.1-0.1,0.1c-0.1,0-0.4,0.2-0.7,0.4
	c-0.3,0.2-0.7,0.7-0.8,1.2c0,0.1-0.1,0.2-0.1,0.3c0,0.4,0.7-0.1,0.7,0c0,0.1,0.2,0,0.4-0.1c0.2-0.1,0.4-0.3,0.4-0.4
	c0-0.1,0.1-0.1,0.1-0.2c0.1,0,0.1-0.1,0.2-0.1c0.1,0,0.3,0,0.5-0.2c0.1-0.1,0.2-0.2,0.4-0.3c0.1-0.1,0.2-0.2,0.3-0.2
	c0.2-0.1,0.3-0.3,0.2-0.4c-0.1-0.1-0.1-0.1-0.1-0.1c-0.2-0.1-0.5-0.1-0.7-0.2C87.5,31.4,87.5,31.4,87.5,31.3 M18.1,46.2
	C18.1,45.9,18.5,46.2,18.1,46.2 M18.3,45.9c0,0-0.1,0.1-0.2,0.1c-0.1,0-0.2-0.3-0.3-0.2c-0.2,0.1,0.1,0.2-0.1,0.3
	c-0.1,0-0.1-0.1-0.2-0.1c-0.2,0.1-0.1,0.2-0.3,0.2c-0.1,0-0.1-0.2-0.2-0.2c-0.1,0-0.2,0-0.2,0.1c0,0,0.1,0.1,0.1,0.1
	c0.2,0.2,0.2,0.1,0.4,0.1c0.1,0,0.1,0.1,0.2,0.1c0,0,0.1-0.1,0.2-0.1c0.2-0.1,0.4,0.1,0.5,0c0,0,0.2-0.3,0.2-0.3
	C18.5,46.1,18.4,45.9,18.3,45.9 M80.2,36.5c-0.1,0.1-0.2,0.1-0.2,0.1c0,0,0-0.2,0-0.3c0.1-0.2,0.3-0.1,0.3-0.1
	C80.4,36.3,80.3,36.4,80.2,36.5 M75.9,37.3c-0.2-0.2-0.1-0.5,0.1-0.4C76.1,36.9,76.2,37.6,75.9,37.3 M69.1,38.1
	c-0.1-0.2,0.3-0.3,0.4-0.2C69.5,38.1,69.3,38.3,69.1,38.1 M49.2,38.7c-0.1,0.2-0.3,0-0.4,0C48.5,38.2,49.4,38.4,49.2,38.7
	 M48.3,39.3c-0.1,0.1-0.2-0.1-0.3-0.2C47.4,38.5,48.6,39,48.3,39.3 M47.6,39.3c-0.3-0.1,0.2-0.3,0.2-0.1
	C47.8,39.4,47.6,39.4,47.6,39.3 M34.4,46.7c0,0,0-0.2,0.2-0.2C34.8,46.6,34.5,46.7,34.4,46.7 M34.1,47.1c0.1,0.1,0.1,0.3-0.2,0.3
	c0,0-0.4-0.4-0.4-0.4C33.6,46.8,33.8,46.9,34.1,47.1c-0.1-0.1,0-0.2,0.1-0.2c0,0,0.1-0.1,0.1-0.1C34.5,47,34.3,47.1,34.1,47.1
	 M33.3,46.8c-0.1-0.1,0.2-0.3,0.2-0.3c0.3-0.1,0.1-0.1,0.2,0.1c0.2,0.1,0.6-0.2,0.5,0.1C34.3,46.6,33.3,46.8,33.3,46.8 M32.9,47.3
	c0,0,0-0.4,0-0.4C33.3,46.6,33.2,47.4,32.9,47.3 M27.9,47.6c0,0,0.2,0,0.2,0C28.4,47.8,27.8,47.9,27.9,47.6 M26.8,48.3
	c0.1-0.1-0.1,0.2-0.3,0.2c0,0-0.2-0.4-0.2-0.5C26.4,48,27.1,48.1,26.8,48.3 M24.1,48.4c0,0.1-0.4,0.1-0.2-0.1
	C24,48.3,24.2,48.3,24.1,48.4 M23.1,48.4c-0.1-0.1,0-0.2,0.1-0.3C23.6,47.9,23.3,48.7,23.1,48.4 M15.2,47.6c0,0-0.4-0.4-0.4-0.4
	C14.9,46.8,15.9,47.6,15.2,47.6 M14.1,47.5c0,0,0-0.4,0-0.4C14.5,46.8,14.5,47.6,14.1,47.5 M84.7,33.4c-0.1-0.1-0.4-0.1-0.8,0.1
	c-0.4,0.2-0.5,0.4-0.4,0.6c0.1,0.1,0.1,0.3,0.1,0.3c0,0-0.6,0.5-0.6,0.5c-0.2,0-0.7-0.5-1.1-0.4c0,0,0,0,0,0c0,0-0.1,0-0.2,0.1
	c0,0-0.1,0-0.1,0.1c-0.8,0.3-1.7,0.6-2.6,0.9c-0.4,0.1-0.8,0.2-0.7,0.2c0,0,0.1,0.2,0,0.2c-0.1,0-0.2-0.1-0.3-0.1c0,0-0.3,0-0.6,0.1
	c-0.2,0-0.4,0.1-0.6,0.1c0,0-0.1,0-0.1,0c-0.1,0-0.1,0.1-0.1,0.1c-0.1,0-0.3,0-0.6,0c-0.3,0.1-0.5,0.3-0.5,0.5
	c0,0.2-0.2,0.3-0.2,0.4c0,0,0-0.2-0.1-0.3c-0.1-0.2-0.3-0.3-0.5-0.3c-0.2,0-0.4,0.1-0.4,0.1c0,0,0,0,0,0.1c0,0,0,0.1,0,0.1
	c0,0,0.1,0,0.1,0c0,0,0-0.1,0-0.1c0,0,0,0,0,0c0,0,0.1,0,0.3,0.1c0.1,0,0.3,0,0.3,0.1c0.1,0.2,0.1,0.4,0,0.5c-0.2,0.2-0.5,0-0.5-0.1
	c0-0.1-0.1-0.2-0.2-0.2c-0.1,0-0.1-0.1-0.2-0.1c-0.1,0-0.1,0-0.1-0.1c0-0.1-0.3-0.1-0.8,0c-3.4,0.4-5.7,0-8.1-0.4
	c-0.1,0-0.2,0-0.3,0c-0.2,0-0.3,0-0.4,0c-0.1,0-0.2,0-0.2,0c0,0-0.3-0.1-0.7-0.2c-1-0.1-2.1-0.3-3.3-0.3c-0.4,0-0.8,0-0.9,0.1
	c0,0-0.1,0-0.1,0c0,0-0.4,0-0.8,0c-1.5,0.1-3.3,0.3-5.4,0.8c-0.2,0.1-0.4,0.1-0.6,0.2c-5.4,1.4-7.9,3.2-10.4,5
	c-1.8,1.3-3.5,2.6-6.3,3.6c0,0.1-0.1,0.1-0.3,0.2c0,0,0,0-0.1-0.1c-0.1,0-0.2,0.1-0.4,0.1c-0.1,0.1-0.2,0.2-0.3,0.1c0,0,0,0-0.1,0
	c0,0,0,0-0.1,0c-0.9,0.3-2,0.6-3.1,0.9c-2.4,0.6-4.3,0.8-6,0.8c0,0,0,0.1,0,0.1c0,0,0.1,0.1,0.1,0.2c0.1-0.1,0.3-0.1,0.4-0.1
	c0,0,0.2,0,0.2,0c0.1,0.2-0.3,0.4-0.6,0.4c0,0,0,0.1,0,0.1c-0.1,0.1-0.1,0-0.3,0.1c-0.2,0.1,0,0.1-0.1,0.2c-0.2,0-0.4-0.1-0.4-0.2
	c0-0.1,0.2-0.1,0.2,0c0.1-0.2-0.3-0.3-0.1-0.4c-0.1,0-0.1-0.1-0.1-0.2c-1.9,0-3.4-0.3-5-0.5c-1.2-0.2-2.3-0.4-3.6-0.5
	c0,0.1-0.2,0.1-0.2,0.1c0,0,0-0.1,0-0.1c-0.1,0-0.1,0-0.2,0c0,0,0,0,0,0.1c0,0-0.9,0.2-1,0.2c0-0.1,0.2-0.3,0.2-0.3
	c-0.4,0-0.9,0-1.3,0c0-0.1-0.1-0.1-0.1,0c0,0,0,0,0,0c-0.5,0-1,0.1-1.6,0.1c0.1,0,0.2,0.1,0.1,0.2c-0.1,0.1-0.4,0-0.4-0.1
	c0,0,0,0,0-0.1C10.3,47,9,47.2,7.5,47.6c-0.1,0-0.1,0-0.2,0.1C7.5,47.9,7.2,48,7,48c0,0.1,0,0.1,0,0.2c0,0,0,0,0.1,0
	c0,0,0.2,0,0.2,0c0.1,0.1,0,0.3-0.2,0.3c0.1,0.2,0.4,0.3,0.7,0.3c2.1-0.5,3.9-0.7,5.4-0.8c0,0,0-0.1,0.1-0.1c0.1-0.2,0.2,0,0.2,0.1
	c0.1,0,0.2,0,0.3,0c0.1-0.1,0.1-0.1,0.3-0.2c0,0,0.1,0.1,0.2,0.2c0.1,0,0.1,0,0.2,0c0.1-0.1,0.2-0.1,0.2-0.1c0.1,0,0.1,0.1,0,0.1
	c1.8,0,3.4,0.3,4.9,0.5c0,0,0.1,0,0.1,0c0,0,0.1,0,0.1,0c1.1,0.2,2.2,0.4,3.4,0.4c0.1-0.1,0.3-0.2,0.3-0.2c0.1,0,0.5-0.1,0.1,0.1
	c0,0-0.1,0.1-0.1,0.1c0.5,0,1.1,0.1,1.7,0c0,0,0,0,0,0c0.2-0.2,0.5-0.2,0.4,0c1.3,0,2.9-0.2,4.6-0.5c0,0,0,0,0-0.1
	c0,0,0.1,0,0.1-0.1c0.1-0.2,0.2-0.2,0.4-0.2c-0.1,0,0,0.1,0,0.2c0.3-0.1,0.6-0.1,0.9-0.2c0.2,0,0.3-0.1,0.5-0.1c0-0.1,0.1,0,0.2-0.2
	c0-0.1,0.1-0.2,0.3-0.3c0,0-0.1-0.1-0.1-0.1c-0.1,0-0.4,0.7-0.6,0.3c0-0.1,0-0.2,0.2-0.4c0.2-0.2,0.3,0,0.5,0c0,0,0.3-0.2,0.4-0.1
	c0.1,0.1,0,0.3-0.1,0.4c0.1,0.1,0.1,0.1,0.2,0.1c0,0,0.1-0.1,0.2-0.1c0-0.2,0.1-0.4,0.2-0.5c0.3-0.1,0.3,0.3,0.2,0.5
	c4.5-1.3,6.8-3,9.1-4.6c1-0.7,1.9-1.4,3-2c0.4-0.2,0.7-0.4,0.6-0.4c0,0-0.1,0-0.1,0c-0.2-0.1,0.4-0.4,0.5-0.4c0,0,0.1-0.1,0.1-0.1
	c0.1-0.1,0.1,0,0.1,0.1c0,0.1,0.4,0,0.8-0.2c0.7-0.3,1.4-0.6,2.3-0.9c0.4-0.1,0.8-0.3,0.7-0.4c0-0.1,0.1-0.1,0.3-0.2
	c0.1,0,0.3-0.1,0.3,0c0,0,0,0.1,0,0.1c0,0.1,0.3,0,0.6-0.1c0.4-0.1,0.7-0.3,0.8-0.3c0,0,0.1,0,0.2,0c0,0,0,0,0,0c0,0,0.1,0,0.1,0
	c0,0,0.1,0,0.1,0c5.6-1.3,8.5-0.8,11.7-0.3c3.1,0.5,6.4,1,12.1-0.3c0.1,0,0.1,0,0.2,0c0.1,0,0-0.2,0.2-0.3c0.1-0.1,0.3-0.1,0.3-0.1
	c0,0,0,0.1,0,0.1c0,0.1,0.2,0.1,0.6,0c0.3-0.1,0.5-0.3,0.5-0.5c0-0.1,0.1-0.3,0.2-0.3c0.1,0,0.2,0.1,0.2,0.2c0,0.2,0.3,0.2,0.8,0.1
	c0.4-0.1,0.8-0.3,1.2-0.4c0.4-0.2,0.4-0.3,0.3-0.6c-0.1-0.2-0.1-0.4,0.2-0.5c0,0,0.1-0.1,0.2-0.1c0.1,0.1,0.4,0.7,0.4,0.8
	c0,0,0,0,0,0.1c0,0,0.3-0.1,0.7-0.3c0.2-0.1,0.5-0.2,0.7-0.3c0.4-0.2,0.7-0.4,0.7-0.4c0,0,0,0,0,0c0,0,0,0-0.1-0.1
	c0-0.1,0-0.3,0.1-0.2c0.1,0.1,0.3,0.1,0.5-0.1c0.2-0.1,0.4-0.4,0.3-0.6c0-0.1,0-0.2-0.1-0.3C84.8,33.6,84.8,33.5,84.7,33.4
	 M92.9,5.1c0,0,0.1,0,0.1,0c0.1,0,0-0.1,0-0.1C93,5.1,92.9,5.1,92.9,5.1 M88.4,30.9c-0.3,0.3,0.5,0.6,0.7,0.4
	C89.2,31,88.6,30.7,88.4,30.9 M89.5,31.2c0.2-0.1,0.1-0.3-0.1-0.2C89.2,31.2,89.3,31.4,89.5,31.2 M34.5,32.3
	C34.5,32.3,34.5,32.3,34.5,32.3C34.5,32.3,34.5,32.3,34.5,32.3 M10.9,42.9C10.9,42.9,10.9,43,10.9,42.9c0.1,0.2,0.4,0.1,0.5,0
	c0-0.1-0.1-0.1-0.2-0.1l0,0c0.1,0,0.2-0.1,0.2-0.2c0,0,0,0,0.1,0c0,0,0,0-0.1,0c0,0.1,0.2,0.4,0.2,0.4c0,0.1-0.4,0.4-0.4,0.4
	c0,0-0.5-0.3-0.5-0.4C10.7,43,10.8,43,10.9,42.9 M12.9,42.5C12.9,42.5,12.9,42.5,12.9,42.5C12.9,42.5,12.8,42.5,12.9,42.5
	C12.8,42.5,12.9,42.4,12.9,42.5 M13.1,41.9c0.1,0,0.2,0.3,0.1,0.3c-0.2,0.1-0.2-0.1-0.4-0.2C12.9,42,13,41.9,13.1,41.9 M16.4,43.6
	c0,0,0.4-0.2,0.2,0.1C16.6,43.8,16,43.8,16.4,43.6 M16.6,43.1c0,0,0.1-0.1,0.2-0.1c0,0,0.2,0.3,0.3,0.3c0,0,0,0,0-0.1
	c0,0,0,0.1,0,0.1C17,43.5,16.5,43.3,16.6,43.1 M17.2,43.8C17.2,43.8,17.2,43.8,17.2,43.8C17.2,43.8,17.2,43.8,17.2,43.8
	C17.2,43.8,17.2,43.8,17.2,43.8 M16.8,44.3c0.1,0,0.1,0,0.2,0.1C16.9,44.4,16.9,44.4,16.8,44.3 M17.8,43.2c0.1,0,0.4,0,0.3,0.1
	C18.1,43.4,17.5,43.4,17.8,43.2 M19.6,43.2C19.6,43.2,19.6,43.2,19.6,43.2C19.6,43.1,19.6,43.2,19.6,43.2 M20.8,43.3
	C20.8,43.3,20.8,43.3,20.8,43.3C20.8,43.4,20.7,43.3,20.8,43.3C20.7,43.3,20.8,43.3,20.8,43.3 M25.8,44c0.2-0.2,0.5-0.1,0.4,0.1
	C26.2,44.2,25.5,44.2,25.8,44 M29,43.8c0,0,0-0.2-0.1-0.1C29.1,43.3,29.3,43.8,29,43.8 M31.4,42.8c0.1-0.3,0.5,0.1,0.3,0.2
	C31.6,43,31.3,42.9,31.4,42.8 M32.5,42.6c0.2-0.2,0.1,0.4,0,0.3C32.3,42.8,32.4,42.6,32.5,42.6 M33.4,42C33.4,42,33.3,42,33.4,42
	c0-0.1,0.6-0.1,0.6,0.1c0-0.1-0.5,0.2-0.6,0.2C33.2,42.3,33.3,42.1,33.4,42 M36.8,40.5c0,0,0.4-0.1,0.2,0.2
	C36.9,40.7,36.4,40.6,36.8,40.5 M38.3,40.4c0.1,0,0.4,0,0.2,0.2C38.5,40.7,37.9,40.5,38.3,40.4 M59.8,32.7c-0.1,0-0.2-0.1-0.1-0.1
	c0.1,0,0.2,0,0.2,0.1C59.9,32.7,59.9,32.7,59.8,32.7 M61.7,32.5c0.1,0,0.2,0.3,0,0.2C61.7,32.6,61.6,32.5,61.7,32.5 M63.9,32.7
	c-0.1,0.1-0.3,0-0.4-0.2C63.5,32.2,64.4,32.4,63.9,32.7 M69.8,33.1c-0.1,0-0.1,0-0.1,0c0,0-0.1-0.2,0.1-0.2
	C70,33.1,69.8,33.2,69.8,33.1 M69.9,34c-0.1,0-0.2-0.1-0.1-0.2C70.1,33.5,70.3,34.2,69.9,34 M77.8,32.3c0,0.2-0.2,0.1-0.2,0
	c0-0.1,0-0.1,0-0.2C77.7,32.1,77.8,32.2,77.8,32.3 M10.3,43.9C10.3,43.8,10.3,43.8,10.3,43.9c0-0.2,0.1-0.1,0.1,0
	c1.1-0.1,2.1-0.2,3-0.2c0.1,0,0.2,0.1,0.2,0.3c0.2,0,0.1-0.1,0.2-0.2c0.2-0.1,0.5,0.2,0.6,0c0,0,0,0,0,0c0.3,0,0.5,0,0.8,0.1
	c0,0.1,0.2,0.3,0.2,0.2c0,0,0-0.1-0.1-0.2c0.4,0,0.8,0.1,1.2,0.2c0,0-0.1,0-0.1,0.1c0,0.1,0.1,0.2,0.1,0.3c0.2,0,0.2,0.2,0.4,0.2
	c-0.1,0.1-0.1,0.3-0.1,0.4c0,0-0.1,0.1-0.1,0.1c0.1,0.4,0.4-0.1,0.5-0.1c0.1,0,0.1,0.2,0.3,0.1c0,0,0.1-0.3,0.1-0.3
	c0-0.1-0.4,0-0.4-0.2c-0.1,0-0.1,0.1-0.2,0.1c0-0.2,0.2-0.2,0.4-0.2c-0.1,0-0.3-0.4-0.2-0.5c0,0,0,0,0,0c0,0,0,0.1,0,0.2
	c0.1,0,0.2,0,0.3,0c0,0,0,0,0,0c0,0,0,0,0.1,0c0.1,0,0.1,0,0.2,0c0,0.1-0.1,0.4-0.1,0.4c0,0,0.3,0,0.4-0.2c0,0,0-0.1,0-0.2
	c0.1,0,0.2,0,0.2,0c0.6,0.1,1.3,0.2,1.9,0.3c0.1,0,0.1,0.1,0.1,0c0,0,0,0,0,0c0.2,0,0.4,0.1,0.6,0.1c0,0,0,0,0,0.1
	c0,0.1-0.3,0.2-0.3,0.3c0,0,0.2,0.1,0.2,0.1c-0.3,0.1-0.1,0.3-0.1,0.4c0,0.1-0.1,0.1-0.2,0.2c-0.1,0.1,0,0.3,0.2,0.3
	c0.2-0.1,0.1-0.2,0.1-0.3c0-0.1,0.1-0.3,0.2-0.4c0.1-0.1,0.3-0.1,0.4-0.2c0.1-0.1,0-0.3,0-0.4c0,0,0,0,0,0c1.5,0.1,3.2,0.2,5.3-0.1
	c-0.1,0-0.3-0.1,0-0.2c0,0,0.3,0,0.2,0.1c0.8-0.1,1.7-0.3,2.7-0.5c0,0,0.1-0.1,0.1-0.1c0.1-0.1,0.2-0.1,0.2,0c0.2,0,0.3-0.1,0.5-0.1
	c0.3-0.1,0.5-0.1,0.8-0.2c0,0,0,0,0,0c0.1,0,0.1,0,0.1,0c1.6-0.4,3-0.9,4.2-1.4c-0.1-0.4,0.4-0.5,0.6-0.5c0.2,0,0.2,0.1,0.3,0.2
	c0.3-0.1,0.6-0.3,0.9-0.4c-0.1,0-0.1-0.3-0.1-0.5c0,0,0.2-0.2,0.3,0c0.1,0.1-0.4,0.5-0.3,0.5c1.6-0.9,2.9-1.8,4.2-2.7
	c0.6-0.4,1.2-0.8,1.8-1.2C43.7,37.3,44,37,44,37c0,0,0,0,0.1-0.1c0,0,0,0,0.1,0c0,0,0.4-0.2,0.8-0.4c0.9-0.5,1.8-1,2.9-1.4
	c0.4-0.2,0.8-0.3,0.7-0.3c0,0,0,0,0,0c-0.1-0.2,0-0.2,0-0.1c0.1,0.1,0.5,0.1,0.9-0.1c0.8-0.3,1.7-0.5,2.6-0.7
	c0.3-0.1,0.5-0.1,0.7-0.2c0.4-0.1,0.7-0.1,0.6-0.2c0,0-0.1,0-0.1,0c-0.1,0-0.3-0.2-0.4-0.2c-0.4,0-0.8,0.5-1.2,0.4
	c-0.1-0.1,0.1-0.4-0.2-0.3c-0.2,0-0.1,0.7-0.5,0.4c0,0-0.2-0.3-0.2-0.3c-0.2,0,0,0.3-0.2,0.4c-0.2,0.2-0.5-0.1-0.5-0.1
	c-0.2-0.3,0.1-0.1,0.5-0.4c0.2-0.1,0-0.1,0.2-0.2c0.1,0,0.2,0.1,0.3,0.1c0,0,0.6-0.5,0.7-0.5c0.4,0,0.1,0.3,0.1,0.4
	c0,0.1,0.3,0.2,0.3,0.2c0.1,0,0.1-0.3,0.1-0.4c0.1-0.1,0.6-0.2,0.7-0.2c0.2,0,0.2,0.1,0.2,0.1c0.2,0,0.3-0.3,0.5-0.1
	c0,0,0,0.1-0.1,0.1c-0.1,0.1-0.1,0.2-0.1,0.4c0.1,0.2,0.1,0.3,0.2,0.3c0.1,0,0.2,0,0.2-0.1c0,0,0,0,0,0c0,0-0.1-0.7,0-0.8
	c0,0,0.1,0,0.2,0c0.1,0,0.4,0.1,0.4,0.2c0,0.1,0.1,0.2,0.1,0.3c0,0.1,0.1-0.1,0.1-0.1c0,0,0,0.1,0,0.1c0,0.1,0.1,0.1,0.3,0.1
	c0.1,0,0.1-0.2,0.1-0.4c-0.1-0.1-0.1-0.3,0-0.4c0,0,0.2,0,0.3,0.1c0,0,0,0,0,0c0,0,0,0,0,0c0,0,0,0,0.1,0.1c0.1,0,0.1,0.1,0.2,0.1
	c0.1,0,0.7-0.6,0.7-0.1c0,0.1,0,0.1,0,0.2c0,0.1,0.3,0.2,0.7,0.2c0.8,0,1.5,0,2.1,0c0.5,0,0.8,0,0.8,0c0,0,0-0.1,0-0.1
	c-0.1-0.1-0.2-0.1-0.1-0.2c0,0,0.5,0.1,0.6,0.2c0,0,0,0.1,0,0.1c0,0.1,0.3,0.1,0.7,0.2c0.8,0.1,1.5,0.2,2.3,0.3
	c1.2,0.2,2.4,0.4,3.7,0.5c0.4,0,0.9,0,1-0.1c0.1,0,0.2,0,0.2,0c0.1,0,0.2,0.1,0.1,0c0-0.1-0.1-0.1-0.2-0.2c0-0.1-0.1-0.1,0-0.1
	c0.1-0.1,0.2,0,0.2,0.1c0,0.2,0.1,0.3,0.1,0.3c0,0,0.1,0,0.1,0c0,0,0.4,0,0.8,0c0.4,0,0.7-0.1,0.7-0.1c0-0.1,0-0.1,0-0.1
	c0.1,0,0.1,0,0.2,0c0.1,0,0.1,0,0-0.1c-0.1,0-0.2-0.1-0.2-0.2c0,0,0.4-0.4,0.5-0.4c0.1,0,0.2,0,0.3,0.1c0.1,0.1,0.1,0.3,0.1,0.4
	c0,0.2,0,0.2-0.1,0.2c-0.1,0-0.1,0-0.2,0c0,0,0,0,0,0c0,0,0.1,0,0.2,0c0.1,0,0.3,0,0.4,0c0.1,0,0.1-0.2,0.2-0.4
	c0.1-0.1,0.2-0.2,0.2,0c0,0.1,0,0.1,0,0.2c0,0,0,0.1,0.1,0.1c0,0,0.4,0,0.9-0.1c0.1,0,0.3,0,0.5-0.1c0.4-0.1,0.8-0.2,0.8-0.3
	c0,0,0-0.1-0.1-0.1c0,0-0.1-0.1-0.1-0.1c0-0.1-0.1-0.1-0.1-0.1c0,0,0,0,0,0c0,0,0.1,0,0.2,0c0.1-0.1,0.3-0.1,0.4,0
	c0.1,0.1,0.2,0.2,0.2,0.3c0,0.1,0.1,0.1,0.4,0c0.2-0.1,0.4-0.2,0.5-0.2c0.1,0,0.4,0,0.7-0.1c0.3-0.1,0.5-0.2,0.5-0.3
	c0-0.1,0-0.2,0-0.3c0,0,0-0.1,0.1,0c0,0,0,0.1,0,0.1c0,0.1,0,0.2,0,0.2c0,0.1,0,0.1,0.1,0.1c0,0,0.1-0.1,0.1-0.1c0,0,0-0.1,0-0.1
	c0,0,0.1,0,0.2,0c0.1,0,0.2-0.1,0.2-0.1c0,0,0.1,0,0.1,0c0,0.1,0.1,0.1,0.2,0.1c0.1,0,0.2-0.1,0.3-0.2c0,0,0.1-0.1,0.1,0
	c0,0,0,0,0,0c0,0,0.4-0.1,0.8-0.2c0.1,0,0.1,0,0.2-0.1c0.4-0.2,0.7-0.3,0.7-0.4c-0.1-0.1,0-0.2,0-0.3c0-0.1,0.1-0.2,0.1-0.3
	c0-0.1,0-0.1-0.1-0.1c0,0-0.1,0-0.1,0c0,0,0,0,0-0.1c0-0.1-0.1-0.1-0.2,0c-0.1,0-0.1,0-0.2,0c0,0-0.1,0-0.1,0c0,0-0.1-0.1-0.1-0.1
	c0,0,0.1,0.1,0,0.2c0,0-0.1,0.1-0.1,0.1c-0.1,0-0.1,0-0.2,0c-0.1-0.1-0.5,0-1,0.1c-0.2,0.1-0.4,0.1-0.6,0.2
	c-0.4,0.1-0.8,0.4-0.9,0.5c-0.1,0.1-0.2,0.1-0.2,0c0,0,0,0,0-0.1c0,0,0-0.1-0.1-0.1c0,0-0.1,0.2-0.2,0.3c-0.1,0.1-0.1,0.2-0.2,0.2
	c0,0,0-0.1,0-0.1c0,0-0.1-0.1-0.1-0.1c0-0.1-0.1-0.1-0.2-0.1c-0.1,0-0.1,0-0.2,0c-0.9,0.2-1.8,0.4-2.6,0.5c-0.4,0.1-0.8,0.1-0.7,0.2
	c0.1,0,0.2,0,0.2,0c0-0.1,0.1-0.1,0.1-0.1c0.2,0.1,0.1,0.3-0.1,0.3c-0.2,0.1-0.5-0.1-0.5-0.2c0-0.1-0.1-0.1-0.2-0.1
	c-0.1,0-0.2,0.1-0.2,0.2c0,0-0.1,0-0.2,0c0,0,0,0-0.1-0.1c0,0-0.4,0-0.8,0c-0.6,0-1.2,0.1-1.8,0c-0.5,0-0.8,0-0.8,0.1
	c0,0,0,0.1-0.1,0.1c-0.1,0.1-0.1,0.3,0,0.3c0.2,0,0.2-0.3,0.3,0c0.1,0.3,0,0.9-0.2,0.5c-0.1-0.1-0.1-0.1-0.2-0.2
	c-0.2,0-0.3,0-0.4-0.1c-0.1,0-0.2-0.2,0-0.4c0.1-0.1,0.3-0.3,0.3-0.3c0,0,0.1,0,0.1,0c0.1,0-0.3,0-0.7-0.1c-0.4,0-0.7-0.1-1-0.1
	c-0.4-0.1-0.9-0.1-1-0.1c-0.1,0-0.4-0.1-0.7-0.2c-0.2,0-0.3-0.1-0.5-0.1c-1.3-0.2-2.6-0.4-4.1-0.5c-0.4,0-0.7,0.1-0.8,0.2
	c-0.1,0.1-0.1,0.1-0.2,0.1c-0.1,0-0.1-0.1-0.1-0.2c0-0.1-0.2-0.2-0.7-0.2c-1.7,0-3.7,0.3-6.2,0.9c-5.8,1.4-8.4,3.3-11,5.1
	c-1.1,0.8-2.2,1.6-3.5,2.3c0,0.1,0.1,0.3,0.2,0.2c0,0,0,0,0-0.1c0,0,0,0.1,0,0.1c-0.1,0.1-0.3,0-0.4-0.1c-1.7,0.9-3.8,1.8-6.8,2.5
	c0,0,0,0,0,0c0,0.1-0.4,0.4-0.4,0.4c0,0-0.3-0.2-0.5-0.3c-1,0.2-1.9,0.4-2.7,0.5c-0.1,0.1-0.4,0.1-0.6,0.1c-1.7,0.2-3.2,0.2-4.5,0
	c0-0.1-0.1-0.2-0.1-0.2c-0.1-0.1,0.4-0.4,0.4-0.4c0-0.1,0,0,0-0.2c0-0.1,0-0.1,0-0.1c-0.1-0.1-0.4-0.1-0.5,0c-0.1,0.1,0,0.2-0.2,0.3
	c-0.1,0-0.2,0-0.3-0.3c-0.1,0.1-0.3-0.1-0.3,0c-0.1,0.1,0,0.3,0.1,0.3c-0.3,0-0.6,0.4-0.8,0.1c-0.1,0-0.1,0.1-0.1,0.1
	c-0.1-0.2-0.3-0.1-0.4-0.1c0,0-0.3,0.1-0.3,0.1c-0.1,0.1-0.1,0.1-0.1,0.2c-0.2,0-0.4-0.1-0.6-0.1c-0.1,0-0.2,0-0.3-0.1
	c0-0.1-0.1-0.1-0.1,0c0,0,0,0,0,0c-0.3,0-0.6-0.1-0.8-0.1c0,0-0.1-0.1-0.1-0.2c-0.1-0.1-0.1-0.2-0.2-0.3c-0.1-0.1-0.2-0.1-0.2-0.2
	c-0.1-0.1-0.2-0.3-0.3-0.2c0.1,0.1,0,0.2-0.1,0.3c0.1,0.2,0.4,0.3,0.5,0.5c-0.7-0.1-1.5-0.2-2.3-0.2c0.1,0,0.2-0.1,0.2-0.1
	c0.1-0.1,0-0.2,0-0.3C15,42,15.1,42,15.1,42c0.3-0.2-0.2-0.2-0.3-0.4c0-0.1,0-0.2,0-0.2c-0.1-0.1-0.3,0-0.4-0.1
	c-0.1,0-0.1-0.3-0.2-0.2c-0.1,0,0,0.2-0.1,0.3c-0.1,0-0.1-0.1-0.2-0.1c0,0-0.1,0.1-0.2,0.1c-0.1,0-0.2,0-0.2,0
	c-0.1,0-0.2,0.2-0.3,0.2c-0.2,0.1-0.3,0-0.4,0.1c-0.1,0.1,0,0.2-0.1,0.2c-0.1,0-0.1,0-0.1,0c-0.1,0.2,0.1,0.2,0.2,0.3
	c0,0.1-0.1,0.2,0,0.3c-1.7,0-3.7,0.3-6.2,0.9c-0.3,0.1-0.5,0.4-0.5,0.7c0.1,0.3,0.4,0.5,0.7,0.4C8.1,44.2,9.2,44,10.3,43.9
	 M54.3,33.4C54.3,33.4,54.4,33.4,54.3,33.4C54.3,33.3,54.3,33.3,54.3,33.4C54.3,33.3,54.3,33.3,54.3,33.4
	C54.2,33.4,54.2,33.4,54.3,33.4 M8.8,34.6c0-0.1,0.1-0.2,0.2-0.1C9.1,34.6,8.7,34.7,8.8,34.6 M10.6,34.6c0.1-0.2,0.3,0.1,0.3,0.2
	C10.8,34.8,10.5,34.8,10.6,34.6 M29.3,34.4c0.1-0.2,0.3,0.1,0.3,0.2C29.6,34.6,29.2,34.5,29.3,34.4 M33.9,33.1c0,0,0.4,0,0.3,0.3
	C34.2,33.6,33.8,33.3,33.9,33.1 M12,35.2c0.5,0,0.8-0.1,0.9-0.3c0.1-0.2,0.2-0.2,0.2-0.1c0,0.1,0.1,0.2,0.1,0.1c0,0,0.1,0,0.2,0
	c0.1,0,0,0.2,0.2,0.1c0.1,0,0.6-0.2,0.6-0.2c0.2-0.1,0-0.2,0.2-0.3c0.2-0.1,0.6,0.2,0.6,0.6c0,0.1,0,0.1,0,0.2
	c0,0.1,0.3,0.2,0.7,0.3c0.2,0,0.4,0.1,0.6,0.1c3.1,0.5,6.4,1,12.1-0.3c1.4-0.3,2.7-0.7,3.8-1.1c0,0,0,0,0,0c0.1-0.1,0.1-0.1,0.2,0
	c1-0.4,1.8-0.7,2.6-1.1c-0.1-0.1-0.1-0.2-0.1-0.3c0,0,0.3-0.3,0.2-0.3c0,0,0,0,0,0c0.1,0,0.2,0.3,0.2,0.5c0.4-0.2,0.7-0.4,1-0.6
	c-0.1-0.2,0.1-0.2-0.4-0.3c-0.2,0-0.3-0.2-0.3-0.2c0,0.1-0.1,0.1-0.2,0.1c-0.2,0.1-0.3,0.2-0.4,0.2c-0.1,0-0.1-0.1,0-0.2
	c-0.1,0.1-0.4,0.3-0.4,0.3c0,0,0,0.1,0,0.1c0,0,0.2-0.1,0.2,0c0.1,0.2-0.1,0.2-0.2,0.1c-0.1,0.2-0.2,0.5-0.4,0.5
	c-0.1,0-0.4,0-0.5-0.1c0,0,0.1-0.5,0.3-0.5c0.1-0.1,0.2,0,0.2,0c0,0,0-0.1,0-0.1c0,0,0.1-0.1,0.1-0.1c-0.6,0.3-1.2,0.6-1.8,0.8
	c0,0.1,0,0.2-0.1,0.3c-0.1,0.1-0.2,0.2,0.1,0.1c-0.1,0,0.2-0.2,0.2-0.1c0.2,0.3-0.4,0.2-0.5,0.1c-0.2,0-0.3-0.2-0.6,0
	c0,0-0.2,0.3-0.1,0.3c0.3,0.1,0.5-0.3,0.7-0.2c0.2,0.1-0.2,0.2-0.3,0.5c-0.1,0.2-0.1,0.5-0.4,0.5c-0.2,0,0-0.1-0.1-0.2
	c0,0-0.3-0.1-0.2-0.3c0,0,0.3,0,0.3-0.1c-0.2-0.4-0.5,0.2-0.5,0.2c-0.2-0.1-0.2-0.3-0.2-0.5c-0.9,0.3-1.8,0.6-2.9,0.8
	c-0.2,0-0.4,0.1-0.6,0.1c-0.1,0-0.1,0.1-0.1,0c-3.9,0.8-6.5,0.8-8.8,0.5c-0.4-0.1-0.9-0.1-1,0c-0.1,0-0.1,0.1-0.2,0.1
	c-0.1,0.1-0.2,0.6-0.4,0.3c-0.2-0.2-0.3,0.2-0.5,0.2c-0.1,0,0.2-0.1,0.1-0.2c-0.2-0.3-0.2,0.2-0.4,0.2c-0.3-0.1-0.2-0.4-0.1-0.6
	c0.1-0.2,0.1,0,0.2,0c0.1,0,0.2,0,0.3-0.1c0.1-0.1,0.1-0.2,0-0.2c-0.1,0-0.1,0-0.2,0c-3.1-0.5-6.4-1-12.1,0.3
	c-0.3,0.1-0.5,0.4-0.5,0.7c0.1,0.3,0.4,0.5,0.7,0.4C7.8,35.3,10,35.2,12,35.2 M21.8,45.8c0.1,0.1,0.4-0.1,0.4-0.3
	C22.1,45.5,21.7,45.7,21.8,45.8 M79.4,12.3C79.4,12.3,79.5,12.3,79.4,12.3C79.5,12.3,79.5,12.3,79.4,12.3
	C79.5,12.3,79.4,12.3,79.4,12.3 M4.7,22c0.4-0.3,0,0.3-0.2,0.2C4.5,22.2,4.7,22,4.7,22 M29.1,20.8c0.1-0.1,0.8,0.2,0.2,0.6
	c-0.4,0.2-0.1-0.2-0.2-0.4C29.1,21,29.1,20.8,29.1,20.8 M29.2,20.5c0.1-0.2,0.4-0.2,0.5,0C30,20.9,29,20.9,29.2,20.5 M11.4,22.7
	c0.4,0.1,0.8,0.1,0.8,0.1c0,0,0,0,0,0c0,0,0.7-0.1,0.8,0c0,0,0,0,0,0.1c0,0,0.1,0.1,0.2,0.1c0.1,0,0.1,0,0.2,0
	c3.1,0.5,6.4,1,12.1-0.3c2.2-0.5,4-1.1,5.4-1.8c-0.1-0.3-0.3-0.5-0.2-0.7c0.1-0.1,0.4,0.1,0.3-0.2c0-0.1-0.4-0.1-0.4-0.3
	c-0.7,0.3-1.5,0.6-2.4,0.9c0,0,0,0,0,0.1c0,0.1-0.2,0.1-0.3,0c-0.8,0.2-1.6,0.5-2.6,0.7c-0.6,0.1-1.2,0.3-1.8,0.4
	C23.4,22,23.3,22,23.3,22c0,0,0,0,0-0.1c-4.3,0.8-6.9,0.3-9.7-0.1c-0.1,0-0.2,0-0.3-0.1c-0.2,0-0.3,0-0.3,0c0,0,0,0,0,0.1
	c0,0.1-0.1,0.1-0.1,0.2c0,0.2,0.3,0.3,0.1,0.5c0,0-0.1,0-0.1-0.1c-0.1-0.1-0.2-0.1-0.5-0.1c-0.1,0-0.2-0.1-0.1-0.4
	c0-0.1,0.1-0.1,0.1-0.2c0.1-0.1-0.2-0.3-0.7-0.3c-0.4-0.1-0.8,0-0.9,0c0,0-0.1,0.1-0.1,0.1c-0.1,0.1-0.2,0.1-0.2,0
	c0-0.1-0.3-0.3-0.8-0.3c-0.6,0-1.3-0.1-2.1,0c-1.7,0-3.7,0.3-6.1,0.9c-0.3,0.1-0.5,0.4-0.5,0.7c0.1,0.3,0.4,0.5,0.7,0.5
	C6.1,22.3,8.9,22.4,11.4,22.7 M90.9,1.4c0.1,0.1,0,0.2-0.1,0.1C90.7,1.5,90.9,1.4,90.9,1.4 M88.7,2.8c0.1,0.1,0.5,0.1,0.9,0
	c0.3-0.1,0.5-0.2,0.8-0.3c0.4-0.1,0.8-0.3,0.7-0.4c0-0.1,0-0.1,0-0.2c0-0.1,0.3-0.2,0.4-0.3c0.1-0.1,0.1-0.2,0.1-0.3
	c0-0.2,0-0.3-0.1-0.3c-0.1,0.1-0.2,0-0.2,0c0,0-0.4,0.1-0.8,0.2c-0.1,0-0.1,0-0.2,0.1c-0.4,0.1-0.8,0.3-0.8,0.4c0,0.1,0,0.1,0,0.2
	c0.1,0.2,0.4,0,0.4,0.2c0,0.2,0,0.3-0.2,0.3c-0.2,0.1-0.2-0.4-0.5-0.5C89,1.9,88.8,2.1,88.8,2c0-0.1-0.1-0.2-0.2-0.1
	c-0.1,0-0.1,0.2-0.1,0.4c0,0.1,0,0.2,0.1,0.3C88.6,2.6,88.7,2.7,88.7,2.8 M89,7.5c-0.2,0.1-0.2-0.1,0-0.3C89.3,7,89.2,7.3,89,7.5
	 M90.2,6.6c0.1-0.1,0.4,0.1,0.4,0.3C90.5,7.2,89.9,6.9,90.2,6.6 M79.8,12.2C79.8,12.2,79.8,12.2,79.8,12.2c-0.1,0.1-0.1,0.2-0.2,0.2
	c-0.1,0-0.2,0-0.3,0c-0.1,0-0.1,0-0.1-0.1c0-0.1,0.1-0.1,0.2-0.1C79.6,12.2,79.7,12.2,79.8,12.2c-0.1-0.1,0-0.2,0-0.2
	c0.1,0,0.3-0.1,0.3,0.1C80.1,12.4,80,12.1,79.8,12.2 M88.8,6.4c0,0-0.2,0-0.4,0.1c-0.2,0.1-0.3,0.2-0.2,0.3c0.1,0,0.2,0.1,0.2,0.2
	c0,0-0.4,0.6-0.5,0.6c-0.4,0.1-0.3-0.4-0.6-0.4c-0.1,0-0.3,0.1-0.4,0.2c-0.2,0.1-0.8,0.2-1.2,0.5c-1.4,0.8-2.5,1.6-3.6,2.4
	c-1.2,0.9-2.5,1.8-4,2.6c-0.4,0.2-0.5,0.4-0.3,0.6c0.1,0.1,0.2,0.2,0.2,0.4c0,0,0,0,0,0.1c0,0,0.1,0.1,0.2,0.1c0.1,0,0.3,0,0.5-0.1
	c0.2-0.1,0.4-0.3,0.4-0.3c0,0,0-0.1,0.1-0.1c0.1-0.2,0.1,0,0.2,0c0,0,0,0,0,0c0,0,0.1,0,0.1,0c0,0,0.1-0.1,0.2-0.2
	c0,0,0.1-0.1,0.1-0.1c0,0,0,0,0,0c0,0,0.3-0.1,0.7-0.4c0.4-0.2,0.6-0.4,0.6-0.5c0,0,0.1-0.1,0.1-0.1c0.1,0,0.4-0.2,0.8-0.5
	c0.3-0.2,0.6-0.4,0.8-0.6c0.9-0.6,1.8-1.3,2.8-1.9c0.4-0.2,0.6-0.6,0.6-0.9c0.1-0.3,0.5-0.2,0.6-0.4c0-0.1,0.1-0.2,0.3-0.2
	c0.2,0,0.1,0.2,0.4,0.3c0.1,0,0.2,0,0.3,0c0,0,0,0,0.1,0c0,0,0.4-0.1,0.8-0.3c0.7-0.3,1.4-0.5,2.2-0.8c0.4-0.1,0.6-0.4,0.3-0.6
	C91,6.2,90.7,6.1,90.7,6c0-0.1,0-0.2,0.1-0.2c0.1-0.1-0.1-0.1-0.4,0c-0.4,0.1-0.7,0.3-0.7,0.4c0,0.1-0.1,0.1-0.1,0.2
	C89.4,6.6,88.8,6.6,88.8,6.4C88.8,6.5,88.8,6.5,88.8,6.4 M35.5,17.2c0.1-0.1,0.7,0.4,0.1,0.6c-0.4,0.1,0-0.2-0.1-0.4
	C35.6,17.3,35.5,17.2,35.5,17.2 M35.8,16.9c0.1-0.1,0.4-0.1,0.5,0.1C36.4,17.4,35.4,17.3,35.8,16.9 M39.3,15.1
	c0.1-0.1,0.2-0.2,0.4-0.2C40.5,14.6,39,15.7,39.3,15.1 M71.5,11.1c0-0.3,0.2,0.3,0,0.2C71.5,11.3,71.5,11.1,71.5,11.1 M73.6,10.6
	c0.2,0.2-0.1,0.4-0.2,0.3c-0.1,0-0.2-0.1-0.2-0.2C73,10.6,73.3,10.4,73.6,10.6 M79,8.5c0.3-0.3,0.3,0.4,0,0.3
	C78.7,8.6,78.9,8.5,79,8.5 M31.1,20.7c0,0,0.1,0.1,0.1,0.1c2.2-1,3.8-2.1,5.3-3.2c0.2-0.2,0.5-0.3,0.7-0.5c0,0,0-0.1,0.1-0.1
	c0,0,0.1,0,0.1,0c0.1,0,0.1-0.1,0.2-0.1c0-0.2-0.6-0.2-0.2-0.5c0,0,0.3-0.1,0.3-0.1c0-0.2-0.2-0.1-0.3-0.3c-0.1-0.3,0.2-0.4,0.2-0.5
	c0.4-0.1,0.1,0.1,0.3,0.6c0.1,0.2,0.1,0,0.1,0.2c0,0.1-0.1,0.2-0.1,0.3c0,0,0,0,0,0.1c0.2-0.1,0.4-0.3,0.6-0.4
	c0.3-0.2,0.6-0.4,0.7-0.5c0,0,0.1-0.1,0.1-0.1c0,0,0.1,0,0.1,0c0,0,0.3-0.1,0.7-0.4c1.7-1,3.9-1.9,7-2.6c5.6-1.3,8.5-0.8,11.7-0.3
	c3.1,0.5,6.4,1,12.1-0.3c2.9-0.7,4.9-1.5,6.6-2.3c0.4-0.2,0.7-0.4,0.7-0.4c0,0,0-0.1,0-0.1c0.1-0.1,0.2-0.1,0.2-0.1
	C78.7,9,78.8,9,78.9,9c0,0,0,0,0-0.1c0,0,0.1-0.1,0.2-0.1c0.1,0,0.5-0.2,0.9-0.5c0.7-0.5,1.4-0.9,2-1.4c1.6-1.2,3.2-2.3,5.4-3.3
	c0.4-0.2,0.7-0.3,0.7-0.3c0,0,0.1-0.3,0-0.6c-0.1-0.3-0.6-0.5-1-0.3c-0.7,0.3-1.4,0.6-2,1c-0.4,0.2-0.6,0.5-0.6,0.6
	c0,0.1,0.1,0.2,0,0.2c-0.1,0.1-0.2,0.1-0.3,0c-0.1-0.1-0.5-0.1-0.8,0.2c-0.8,0.5-1.5,1-2.2,1.5c-2.6,1.9-5,3.6-10.6,4.9
	c-5.6,1.3-8.5,0.8-11.7,0.3c-3.1-0.5-6.4-1-12.1,0.3c-5.8,1.4-8.4,3.3-11,5.1c-1.4,1-2.7,2-4.5,2.8c0,0.1-0.1,0.1-0.1,0.2
	c0,0,0.5,0.6,0.5,0.7c0,0.4-0.4,0.1-0.4,0.1C31.3,20.4,31.1,20.7,31.1,20.7 M21.3,45.8c-0.1,0.1,0.1,0.2,0.2,0.1
	C21.5,45.8,21.4,45.6,21.3,45.8 M18.6,44.7C18.7,44.9,18.8,44.6,18.6,44.7 M18.4,44.4c-0.1,0.2,0.2,0.2,0.2,0.1
	C18.7,44.4,18.5,44.3,18.4,44.4 M19.5,45.2c0-0.1-0.2-0.2-0.3,0C19.3,45.3,19.5,45.3,19.5,45.2 M19.2,45.9c0-0.2,0-0.2,0.2-0.3
	c0-0.1,0-0.1-0.1-0.2c-0.5,0.5-0.2-0.3-0.3-0.4c-0.2-0.2-0.4,0.4-0.4,0.4c0,0.1,0.2,0.1,0.2,0.2C19,45.7,19,46,19.2,45.9 M19.8,45.6
	C19.7,45.7,19.8,45.7,19.8,45.6C19.9,45.6,19.8,45.5,19.8,45.6 M19.5,44.6c0-0.1-0.2-0.1-0.2,0C19.3,44.7,19.5,44.6,19.5,44.6
	 M20.8,44.9c0-0.1-0.4-0.2-0.5,0C20.2,45.2,20.8,45.1,20.8,44.9 M21.8,45C22.3,44.9,21.8,44.6,21.8,45 M16.6,40.9
	C16.6,40.9,16.6,41,16.6,40.9C16.7,41.1,16.7,40.8,16.6,40.9 M20.3,45.6c0,0-0.1,0.1,0,0.1C20.5,45.8,20.5,45.4,20.3,45.6
	 M20.6,41.5c0,0-0.1,0.1,0,0.1C20.8,41.6,20.7,41.4,20.6,41.5 M94.4,10.5c0,0,0.1,0,0.1,0c0.2,0,0.3-0.1,0.4-0.3
	c0.1-0.2,0.1-0.4,0-0.4c0,0-0.1,0-0.1,0c-0.1,0.1-0.2,0.2-0.3,0.3C94.4,10.3,94.4,10.5,94.4,10.5 M16.6,40.8c0-0.1-0.1-0.1-0.1-0.1
	C16.4,40.8,16.6,40.9,16.6,40.8 M81.3,15.8C81.2,15.8,81.2,15.8,81.3,15.8C81.2,15.8,81.2,15.8,81.3,15.8
	C81.2,15.8,81.3,15.8,81.3,15.8 M73.2,20C73.2,20,73.2,19.9,73.2,20C73.3,19.9,73.3,19.9,73.2,20C73.2,19.9,73.2,19.9,73.2,20
	 M67.5,29.7C67.5,29.7,67.5,29.7,67.5,29.7C67.5,29.7,67.5,29.7,67.5,29.7 M93.2,10c0.4-0.3,0.3,0.5-0.1,0.3
	C92.9,10.2,93.2,10.1,93.2,10 M88.6,11.4c0.2-0.1,0.6-0.1,0.6,0.1C89.2,11.8,88,11.8,88.6,11.4 M82.3,15.8c0.2-0.1,0.5,0.2,0.1,0.3
	S82.1,15.9,82.3,15.8 M76.8,18.3c0-0.1,0.3-0.1,0.3-0.1C77.1,18.4,76.8,18.5,76.8,18.3 M38.3,25.7c0,0,0,0.1,0,0.1
	c-0.2,0.2-0.2-0.1-0.3,0.1c0,0.2,0.2,0.2,0.1,0.4c-0.1,0.1-0.5,0.2-0.7,0.2c0,0-0.1-0.1-0.2-0.1c-0.1,0,0-0.1,0-0.1c0,0,0-0.4,0-0.5
	c0,0.1,0.8-0.7,0.8-0.7c0,0,0.5,0.2,0.5,0.3C38.6,25.6,38.3,25.5,38.3,25.7 M36.9,26.2c0,0.1-0.2,0-0.2-0.1
	C36.8,26,36.9,26.2,36.9,26.2 M92.1,10c-0.1-0.1-0.4,0-0.8,0.1c-3.8,1.3-6,2.8-8.1,4.3c-0.2,0.2-0.5,0.3-0.7,0.5
	c-0.4,0.3-0.7,0.7-0.9,0.9c-0.2,0.2-0.3,0.3-0.4,0.2c-0.1-0.1-0.2-0.1-0.3,0c-0.1,0.1-0.3,0.1-0.4,0.2c-0.1,0.1-0.2,0.2-0.2,0.3
	c0,0.1,0,0.4-0.1,0.3c0,0-0.1-0.1-0.2-0.2c0,0,0,0,0,0c0,0-0.3,0.2-0.7,0.4c-0.8,0.4-1.6,0.8-2.6,1.2c-0.4,0.2-0.8,0.3-0.9,0.4
	c-0.1,0-0.1,0.1-0.2,0c0,0,0,0,0,0c0,0-0.4,0.1-0.8,0.2c-0.4,0.1-0.6,0.2-0.6,0.3c0,0,0,0.1-0.1,0.1c-0.1,0-0.1,0-0.2,0
	c0,0,0,0-0.1,0c0,0,0,0.1,0,0.1c0,0,0,0,0,0c0,0-0.1,0.1-0.1,0.2c-0.1,0.1-0.1,0.1-0.1,0.2c0,0,0,0,0,0.1c0,0.3-0.3,0.2-0.4,0.2
	c0,0,0,0,0,0c0,0-0.1,0.1-0.2,0.1c-0.1,0-0.1,0.1-0.1,0.1c-0.1,0-0.9,0.1-0.8-0.5c0-0.1,0.1-0.2,0.2-0.2c0.2,0-0.1,0-0.5,0.1
	c-4.9,1-7.7,0.6-10.7,0.1c-3.1-0.5-6.4-1-12.1,0.3c-0.8,0.2-1.5,0.4-2.2,0.6c-0.4,0.1-0.8,0.5-0.8,0.7c-0.1,0.3-0.3,0.1-0.3-0.1
	c0-0.2-0.3-0.2-0.7,0c-3.1,1.2-5.1,2.6-6.9,3.9c-0.8,0.6-1.5,1.1-2.4,1.6c0.1,0,0.1,0,0.1,0c0.1,0,0.1,0.2,0.3,0.2
	c0.6,0-0.9,0.5-1,0.7c0,0.1,0.1,0.4,0,0.5c-0.3,0.2-0.8,0.1-0.9-0.1C34,28,34.2,28,34.2,27.7c0-0.1-0.1-0.2-0.1-0.2
	c-0.3,0.1-0.5,0.3-0.8,0.4c0.1,0.1,0.2,0.2,0.2,0.3c0.1,0,0.3,0.1,0.3,0.1c0,0.1-0.3,0.1-0.3,0.2c0,0,0.1,0.1,0.1,0.1
	c-0.1,0.2-0.2,0-0.3,0.2c0,0.2,0.2,0.2,0.2,0.3c2.1-1,3.6-2.1,5.1-3.1c0.2-0.2,0.5-0.3,0.7-0.5c-0.2-0.1-0.3-0.2-0.3-0.2
	c0-0.1,0.2-0.1,0.2-0.3c0-0.2-0.1-0.4-0.1-0.5c0.1-0.2,0.3-0.3,0.5-0.4c0.5-0.1,0,0.1,0.3,0.2c0.3,0.1,0.7-0.2,0.9-0.1
	c0,0,0.1,0.1,0.1,0.1c0,0.1,0.4-0.1,0.8-0.3c1.8-1.1,4.1-2.1,7.6-2.9c5.6-1.3,8.5-0.8,11.7-0.3c2.3,0.4,4.8,0.8,8.3,0.4
	c0.4-0.1,0.8-0.1,0.8-0.1c0,0,0,0,0,0c0,0,0.2-0.1,0.4-0.1c0.2,0,0.7,0,1.2-0.1c0.5-0.1,1-0.2,1.5-0.3c0.7-0.2,1.4-0.4,2-0.5
	c0.4-0.1,0.7-0.3,0.7-0.4c0,0-0.1-0.1-0.1-0.1c-0.2-0.2-0.5-0.1-0.5-0.3c0-0.2,0.2-0.4,0.5-0.5c0.3-0.1,0.5,0,0.5,0
	c0,0,0,0.1,0.1,0.1c0,0.1,0.1,0.1,0.1,0.1c0,0,0,0,0.1,0c0.1,0.1,0.1,0.1,0,0.2c0,0.1-0.1,0.2-0.2,0.3c-0.1,0.1,0.1,0.1,0.4,0
	c0.3-0.1,0.5-0.2,0.5-0.3c0,0,0-0.1,0-0.1c0.1-0.2,0.5,0,0.7-0.1c0.1,0,0.1-0.2,0.2-0.3c0.1-0.2,0.3-0.3,0.4-0.3c0,0,0.1,0,0.1,0
	c0,0,0.1,0.3,0.1,0.4c0,0-0.5,0.1-0.5,0.1c0,0,0,0.1,0,0.1c0,0.1,0.3,0,0.7-0.2c0.9-0.4,1.7-0.8,2.4-1.3c0.4-0.2,0.6-0.5,0.6-0.6
	c0,0,0.1-0.1,0.2-0.2c0.1,0,0.2-0.1,0.2-0.1c0.1,0,0.5,0,0.8-0.3c0.4-0.3,0.8-0.5,1.2-0.8c1.1-0.8,2.2-1.6,3.6-2.4
	c0.4-0.2,0.7-0.5,0.6-0.6c0-0.1,0.1-0.3,0.3-0.2c0.1,0.1,0.5,0.1,0.9-0.1c1-0.4,2.2-0.9,3.5-1.3c0.4-0.1,0.8-0.3,0.8-0.3
	c0,0,0-0.1,0.1-0.1c0.1-0.1,0.3-0.1,0.4-0.3c0.1-0.2,0.1-0.3,0.1-0.5c0.1-0.3,0.4-0.3,0.4-0.4c0,0-0.1-0.1-0.2-0.1
	c-0.1,0-0.1,0-0.2,0c-0.4,0.1-0.8,0.2-1.2,0.3c-0.4,0.1-0.7,0.3-0.7,0.3c0,0,0,0.1,0,0.1C92.2,10,92.1,10,92.1,10 M74.8,28.6
	c-0.1-0.3-0.1-0.1,0.1-0.2c0,0,0-0.1,0-0.1c0-0.1,0-0.1,0-0.1c0,0-0.1-0.1-0.1-0.2c0-0.1,0-0.1,0.2,0c0,0,0,0.1,0,0.2
	c0,0.1,0,0.3,0,0.5c0,0.2,0,0.3,0,0.3C75,29,74.8,28.6,74.8,28.6 M74.6,28.5c0.1,0,0.1,0,0.2,0c0.1,0.1,0,0.2-0.1,0.2
	C74.5,28.7,74.5,28.6,74.6,28.5 M73.8,28.2c0.1-0.1,0.4-0.2,0.4-0.1C74.3,28.3,73.7,28.3,73.8,28.2 M76.4,27.8c0-0.1-0.1-0.1-0.2,0
	c-0.1,0-0.2,0.1-0.2,0.2c0,0.1,0,0.1,0,0.2c0,0.1,0.2,0.5-0.2,0.3c0,0,0,0-0.1-0.1c0-0.1,0-0.1,0-0.1c0,0,0,0,0,0
	c0,0-0.4,0.4-0.5,0.3c-0.1-0.1-0.1-0.2-0.1-0.3c0.1-0.2,0.2-0.3,0.2-0.3c0,0,0,0,0,0c-0.1-0.1,0.2-0.2,0.1-0.3c0,0-0.1-0.1-0.1-0.1
	c-0.1,0-0.1,0-0.1-0.1c0,0-0.1,0-0.1,0c-0.1,0-0.1,0-0.1,0.1c0,0,0,0-0.1,0c0,0-0.1,0-0.2,0c-0.1,0-0.2,0.1-0.2,0.2
	c-0.1,0.1-0.2,0-0.2,0c0,0-0.1,0-0.1,0c0,0,0,0-0.1,0c0,0,0,0,0,0c0,0-0.4,0.1-0.8,0.1c-0.2,0-0.4,0.1-0.6,0.1
	c-0.4,0.1-0.7,0.2-0.5,0.4c0.1,0.1,0.1,0.2,0.1,0.3c0,0,0,0-0.1,0c0,0-0.1,0-0.1,0.1c0,0,0,0.1,0,0.1c0,0.1,0,0.1,0.1,0.1
	c0.1,0,0.1,0,0.1,0c0,0,0,0,0,0c0.1,0,0.1,0.1,0.1,0.1c0,0.1-0.2,0.1-0.2,0.1c0,0,0,0-0.1,0c0,0-0.1,0-0.1,0.1c0,0.1,0.4,0.1,0.8,0
	c0.6-0.1,1.2-0.2,1.9-0.4c0.3-0.1,0.5-0.1,0.7-0.2c0.4-0.1,0.7-0.2,0.7-0.3c0,0,0-0.1-0.1-0.1c-0.1-0.1,0-0.2,0-0.3
	C76.4,28,76.4,27.9,76.4,27.8 M39.8,34.7c0.1,0,0.1,0,0.1,0c-0.1-0.1-0.2-0.1-0.2-0.2c0,0,0,0-0.1,0C39.7,34.6,39.8,34.7,39.8,34.7
	 M36.7,37C36.8,37,36.8,37,36.7,37C36.8,37,36.8,37,36.7,37C36.7,37,36.7,37,36.7,37C36.7,37,36.7,37,36.7,37 M65,28.6
	C65.1,28.6,65.1,28.6,65,28.6C65,28.5,65,28.5,65,28.6C65,28.6,65,28.6,65,28.6 M40.2,34.5L40.2,34.5C40.2,34.5,40.2,34.5,40.2,34.5
	C40.2,34.5,40.2,34.5,40.2,34.5C40.2,34.5,40.2,34.5,40.2,34.5 M71,29.2c-0.1,0.1-0.2,0-0.3-0.1C70.5,28.9,71.1,29,71,29.2
	 M69.9,29.3c-0.1,0.2-0.5,0-0.4-0.2C69.7,28.6,69.9,29.2,69.9,29.3 M69,29.1c-0.1-0.1-0.2-0.3-0.1-0.3C69.1,28.5,69.4,29.4,69,29.1
	 M71.8,29.2c0.1-0.2,0.2-0.4,0.1-0.4c-0.1,0-0.1,0.1-0.2,0.2c0,0.1-0.2,0.1-0.3-0.1c0-0.1,0-0.2,0-0.4c0,0,0,0,0,0
	c0,0-0.3,0-0.8,0.1c-0.4,0-0.8,0.1-1.2,0.1c-0.4,0-0.8,0-0.8,0c0,0,0,0,0,0c-0.4,0-0.8,0-1.2,0c-0.4,0-0.8,0.1-0.9,0.1
	c-0.1,0.1,0,0.2,0,0.5c0,0.2-0.1,0.3-0.3,0.1c-0.1-0.1-0.2-0.3-0.1-0.4c0,0,0,0,0.1-0.1c0,0,0-0.1,0-0.1c0,0-0.1,0-0.1-0.1
	c0,0-0.1-0.1-0.1-0.1c0-0.1,0-0.1-0.1-0.1c-0.1,0-0.2,0-0.3,0c-0.1,0-0.2-0.1-0.3-0.1c-0.1,0-0.2,0-0.2,0.1c0,0,0,0.1,0,0.2
	c0,0.1,0,0.1-0.1,0.1c-0.1,0-0.1-0.1-0.1-0.2c0-0.1-0.1-0.2-0.2-0.2c-0.1,0-0.1,0-0.1,0c0,0,0,0.1,0,0.1c0,0.1-0.2,0.2-0.5,0.2
	c0,0-0.1-0.1-0.2-0.1c-0.1-0.1-0.2-0.1-0.2-0.1c0,0,0.1-0.1,0.3-0.1c0.2,0,0.1-0.1-0.2-0.1c-0.3,0-0.6-0.1-0.6,0
	c0,0,0.1,0.1,0.1,0.2c0.1,0.1,0.1,0.1,0.1,0.2c0,0-0.1,0.1-0.1,0.1c-0.1,0,0,0.1,0,0.2c0.1,0.1,0.2,0.2,0.2,0.2c0,0,0-0.1,0-0.1
	c0,0,0-0.1,0-0.1c0.1-0.1,0.1,0,0.1,0c0,0.1,0.1,0.2,0.3,0.3c0.1,0.1,0.2,0.1,0.2,0.2c0,0,0,0.1,0,0.1c0,0.1,0.1,0.1,0.2,0.1
	c0.1,0,0.2,0,0.3-0.1c0,0,0.1,0,0.1,0c0,0,0,0,0,0c0,0,0.3,0.1,0.6,0.1c0.4,0,0.6,0,0.6,0c0,0,0,0,0,0c-0.1-0.2,0.4-0.3,0.5-0.2
	c0.1,0.1,0,0.1,0,0.2c-0.1,0.1-0.1,0.1,0,0.1c0.1,0,0.2,0,0.2-0.1c0,0,0-0.1,0.1-0.1c0,0,0-0.2,0.1-0.3c0.1-0.2,0.3-0.1,0.3-0.1
	c0,0,0,0.1,0,0c0,0,0,0,0,0c0,0,0,0,0.1,0c0,0,0.1,0,0.1,0c0,0,0,0,0,0c0-0.1-0.3-0.1-0.2-0.3c0.2-0.6,0.8,0.1,0.6,0.4
	c0,0-0.1,0-0.1,0c-0.1,0-0.1,0,0,0.1c0,0.1,0,0.1,0,0.2c0,0-0.1,0.1-0.1,0c-0.1,0-0.2,0-0.2,0c0,0,0,0,0,0c0,0-0.1-0.1-0.1-0.2
	c0-0.1-0.1-0.1-0.2-0.1c-0.1,0-0.1,0.1-0.1,0.2c0,0,0,0,0,0.1c0,0,0.2,0.1,0.5,0.1c0.3,0,0.6-0.2,0.6-0.4c0.1-0.2,0.4-0.2,0.4,0.1
	c0,0.2,0,0.3-0.2,0.2c0,0,0,0,0,0c0,0,0,0-0.1,0c0,0,0,0,0,0c0,0,0,0.1,0,0.1c0,0.1,0.2,0.1,0.3,0.1c0.2,0,0.3,0,0.4,0
	c0,0,0.1,0,0.1,0c0.1-0.1,0-0.4,0.2-0.5c0.1,0,0.1,0.1,0.1,0.2c0,0.1,0.4,0.2,0.8,0.2c0,0,0,0,0,0c0.4,0,0.8-0.1,0.8-0.1
	c0,0,0,0,0,0c0,0-0.1-0.1-0.1-0.1c0-0.1,0.1-0.1,0.1,0c0.1,0.1,0.1,0.2,0.1,0.2c0.1,0,0,0,0-0.1c0,0,0-0.1,0-0.1
	c0,0,0.3-0.1,0.4-0.1c0,0,0,0.1,0,0.1c0,0.1,0.1,0.1,0.1,0.1C71.7,29.6,71.8,29.4,71.8,29.2 M63.8,29.3
	C63.8,29.4,63.8,29.4,63.8,29.3C63.8,29.3,63.8,29.3,63.8,29.3 M60.3,28.9c-0.1,0.1-0.3-0.1-0.3-0.2C59.9,28.3,60.7,28.7,60.3,28.9
	 M56.8,28.5c0,0,0-0.1-0.1-0.2c0-0.1-0.2-0.1-0.1-0.2c0,0,0.5,0.2,0.5,0.3c0,0.1-0.1,0.1-0.1,0.2C56.9,28.6,56.8,28.7,56.8,28.5
	 M51.8,29.1c-0.1,0.3-0.7,0.2-0.7-0.2c0-0.3,0.2-0.3,0.4,0C51.6,29.1,51.8,28.9,51.8,29.1 M45.7,30.3c-0.1,0-0.1-0.2-0.1-0.2
	C45.8,30,45.8,30.3,45.7,30.3 M44.7,31.8c-0.1,0.2-0.3,0-0.3-0.1C44,31.2,44.9,31.5,44.7,31.8 M43.6,32.1c-0.2,0.1-0.2-0.1-0.3-0.2
	C42.9,31.2,44,32,43.6,32.1 M42.9,32c-0.2-0.2,0.3-0.2,0.3,0C43.1,32.2,42.9,32.1,42.9,32 M41.2,32.9c-0.2-0.2,0.4-0.3,0.6-0.3
	c0.1,0,0.1,0,0.1-0.1c0.1,0,0.1,0,0.1,0.1c0,0.1,0,0.2,0,0.2C41.9,33.1,41.3,33,41.2,32.9 M38.9,34.4c0.1-0.1,0.3-0.2,0.4-0.1
	C39.5,34.5,38.7,34.6,38.9,34.4 M38.9,35.3c-0.1,0.4,0,0.2-0.3-0.1c0,0-0.3-0.1-0.3-0.3c0,0.1,0.5-0.1,0.6,0.1
	C39,35.1,38.9,35.3,38.9,35.3 M34.5,37.5c0.1-0.1,0.3-0.2,0.3-0.1C35.1,37.6,34.1,37.9,34.5,37.5 M61.8,29.1c0,0,0.2,0,0.5,0.1
	c0.2,0,0.3,0,0.5,0.1c0.1,0,0.3,0,0.5,0.1c0.2,0,0.5,0.1,0.5,0c0,0,0,0,0,0c0,0-0.1,0-0.1,0c-0.1-0.1-0.1-0.1-0.1-0.1
	c0.1-0.1,0-0.1-0.1-0.1c-0.2,0-0.2-0.2-0.3-0.2c0,0-0.2,0-0.3-0.1c-0.2-0.1-0.1-0.3-0.1-0.3c0.1,0,0.2,0,0.1-0.1c0,0,0-0.1,0-0.2
	c0,0,0.1,0,0.1,0c0.1,0,0.1-0.1,0-0.1c0,0,0,0,0,0c-3.1-0.5-6.4-1-12.1,0.3c-0.3,0.1-0.7,0.2-1,0.2c-0.4,0.1-0.8,0.2-0.8,0.3
	c0,0,0,0,0,0c0.1,0.4-0.2,0.1-0.4,0.1c0,0-0.1,0-0.1,0c0,0,0,0,0,0c0,0-0.3,0.1-0.8,0.2c-3.7,1.2-5.9,2.8-7.9,4.3
	c-1.6,1.2-3.1,2.3-5.4,3.3c0,0,0,0-0.1,0.1c0.1,0.2-0.3,0.3-0.5,0.2c-0.2,0.1-0.4,0.2-0.6,0.2c0.2,0.3,0.2,0,0.5,0.1
	c0.1,0,0,0.1,0,0.2c0.1,0.1,0.4,0,0.5,0.2c0,0.1-0.7,0-0.9,0.2c0,0-0.2,0.4-0.2,0.4c0,0,0.4,0.1,0.3,0.2c0.7-0.2,1.4-0.5,2-0.8
	c0,0,0,0,0,0c0,0,0,0,0.1,0c0.3-0.1,0.6-0.3,0.9-0.4c0-0.1,0.1-0.1,0.3-0.2c-0.1-0.1-0.1-0.1-0.2-0.1c0,0,0,0.1,0,0.1
	c0,0-0.1,0-0.2,0c-0.1,0.1-0.3,0.2-0.4,0.1c0,0.1-0.1,0.1-0.1,0.1c-0.1,0-0.1-0.1-0.2,0c-0.1,0.1,0,0.2-0.1,0.3
	c-0.4,0.2-0.7-0.2-0.4-0.4c0.2-0.2,0.5,0.1,0.7,0c0.1,0,0.3-0.4,0.6-0.5c0,0,0.2-0.1,0.2-0.1c0,0,0,0.2,0,0.3c0,0,0.1,0,0.2,0.1
	c0.1,0,0.2-0.1,0.2-0.1c0,0,0,0,0.1,0c0.2-0.1,0.3-0.2,0.5-0.3c0,0,0,0,0,0c0.9-0.5,1.7-1.1,2.4-1.6c0-0.1-0.1-0.1-0.2-0.2
	c-0.2,0.1-0.4,0.2-0.5,0.1c-0.1-0.1,0.1-0.2,0.3-0.2c-0.2-0.2-0.3-0.3,0.1,0c0.1,0,0.2,0,0.2,0c0,0,0,0,0-0.1c0,0-0.1-0.1-0.1-0.1
	c0.1-0.1,0.3,0.1,0.4,0.2c0,0,0,0,0.1,0c0,0,0,0,0,0c0.2,0,0.2-0.3,0.3-0.1c0,0,0,0.1,0,0.1c1.8-1.3,3.6-2.6,6.4-3.7
	c0.4-0.2,0.8-0.5,0.9-0.7c0.1-0.2,0.2-0.3,0.3-0.2c0,0,0,0.1,0,0.2c0,0.1,0.3,0.1,0.7,0c0.6-0.2,1.3-0.4,2.1-0.6
	c2.5-0.6,4.5-0.8,6.2-0.8c0.4,0,0.8,0,0.7-0.1c0-0.1,0-0.1,0-0.1c0-0.1,0.2-0.1,0.2-0.3c0-0.3,0.1-0.1,0.3,0.2
	c0.2,0.2,0.6,0.5,1.1,0.5c0.4,0,0.7,0.1,1.1,0.1c0.4,0.1,0.7,0,0.8-0.1c0-0.1,0.1-0.1,0.2-0.1C62,28.8,61.8,29,61.8,29.1
	C61.8,29.1,61.8,29.1,61.8,29.1 M78.1,27.7c-0.2,0.3-0.6-0.2-0.5-0.5C77.8,26.8,78.3,27.5,78.1,27.7 M81.1,25.5
	c-1.1,0.6-2.4,1.1-3.9,1.6c-0.4,0.1-0.7,0.5-0.6,0.7c0.1,0.3,0.2,0.4,0.3,0.4c0.1,0,0.2-0.1,0.2-0.2c0-0.1,0-0.2-0.1-0.2
	c0,0-0.1,0-0.1-0.1c-0.1-0.2-0.1-0.3,0-0.4c0.2-0.2,0.6,0.1,0.6,0.3c0,0,0,0.1,0,0.1c0,0,0,0.1,0,0.1c0,0,0,0,0,0.1
	c0,0-0.1,0.1-0.1,0.1c0,0.1,0,0.1,0,0.2c0,0.1,0.1,0.1,0.1,0.1c0,0,0.2-0.1,0.5-0.1c0.2-0.1,0.4-0.1,0.4-0.2c0,0,0,0,0,0
	c-0.2-0.1-0.3-0.2-0.1-0.5c0.2-0.2,0.3-0.1,0.3,0c0.1,0.2,0.3,0.3,0.7,0.1c0.8-0.3,1.6-0.7,2.2-1c0.4-0.2,0.8-0.7,0.6-1
	C82,25.3,81.5,25.3,81.1,25.5 M83.9,24.1c0.4-0.1,0.1,0.5-0.2,0.3C83.6,24.2,83.8,24.1,83.9,24.1 M82.8,25.8c0,0,0.4-0.1,0.7-0.3
	c0.9-0.5,1.6-1.1,2.4-1.7c2.6-1.9,5-3.6,10.6-4.9c0.3-0.1,0.5-0.4,0.5-0.7c-0.1-0.3-0.4-0.5-0.7-0.5c-5.8,1.4-8.4,3.3-11,5.1
	c-0.7,0.5-1.4,1-2.1,1.5c-0.4,0.2-0.7,0.5-0.6,0.5c0,0,0,0.1,0,0.1C82.7,25.2,82.7,25.5,82.8,25.8C82.8,25.8,82.8,25.8,82.8,25.8
	 M81.3,31.5c0,0,0.1,0,0.2,0c0.1,0,0.2-0.1,0.2-0.2c0,0,0-0.1-0.1,0c0,0,0,0,0,0C81.5,31.3,81.4,31.3,81.3,31.5
	C81.3,31.4,81.3,31.4,81.3,31.5 M82.9,29.4c0,0-0.1,0-0.1,0c-0.1,0,0,0,0.1,0.2c0.1,0.1,0.1,0.1,0,0.3c0,0-0.1,0.1-0.1,0.1
	c-0.1,0-0.1,0.1-0.1,0.1c0,0,0,0.1,0,0.1c0,0.1-0.3,0.1-0.5,0c0,0,0-0.1,0-0.1c0-0.1,0-0.1-0.1-0.1c-0.1,0-0.2,0.1-0.3,0.1
	c-0.1,0-0.2,0.1-0.2,0.1c0,0.1,0.1,0.2,0.2,0.1c0.1-0.1,0.1,0.2,0.4,0.4c0.3,0.2,0.5,0.3,0.5,0.3c0,0,0.1-0.1,0.1-0.1
	c0,0,0-0.1,0-0.1c0,0-0.3-0.3-0.2-0.3c0.1-0.1,0.5-0.1,0.5,0.1c0,0-0.1,0.2-0.1,0.2c0,0,0,0,0.1,0c0.1,0,0.2,0,0.3-0.1
	c0.1-0.1,0.1-0.1,0-0.1c-0.1,0-0.2,0-0.3-0.1c0,0,0.3-0.4,0.4-0.7C83.5,29.2,82.9,29.4,82.9,29.4 M91.2,15.2c-0.1,0-0.1-0.1,0-0.2
	C91.3,14.8,91.5,15.3,91.2,15.2 M82.7,21.2c-0.1,0.1-0.5-0.1-0.2-0.3C82.4,20.9,82.8,20.9,82.7,21.2 M81.1,21.9c0,0.1-0.6,0-0.3-0.1
	C80.9,21.7,81.2,21.7,81.1,21.9 M79.7,21.9c-0.2-0.1-0.1-0.3-0.1-0.3c0.1,0,0.2,0.1,0.2,0.1c0.1,0.1,0.1,0.1,0.1,0.1c0,0,0,0,0,0
	C80,21.8,79.9,21.9,79.7,21.9 M79.3,22.3c-0.2,0,0.2-0.2,0.3-0.2c0.1,0,0.1,0,0,0.2C79.6,22.3,79.4,22.3,79.3,22.3 M90.9,14.8
	c-0.4,0.2-0.6,0.5-0.8,0.6c-0.2,0.1-0.6,0-0.9,0.2c-0.4,0.2-0.6,0.4-0.6,0.4c0,0,0,0.1-0.1,0.1c0,0-0.1,0-0.1,0
	c-0.1,0-0.4,0.1-0.8,0.3c-0.9,0.5-1.7,1.1-2.5,1.6c-0.4,0.3-0.7,0.5-0.7,0.6c-0.1,0.1-0.1,0.1-0.1,0.1c0,0,0-0.1,0,0c0,0,0,0,0,0
	c-0.2,0.2-0.4,0.3-0.7,0.5c-0.4,0.3-0.5,0.5-0.4,0.7c0.1,0.1,0.1,0.2,0,0.3c-0.1,0.1-0.3,0.1-0.4,0c-0.2-0.1-0.6-0.1-0.9,0.1
	c-0.8,0.5-1.7,1-2.7,1.5c-0.4,0.2-0.5,0.5-0.3,0.7c0.1,0.1,0.2,0.3-0.2,0.4c-0.2,0.1-0.4-0.1-0.7,0.1c-0.1,0.1-0.1,0.2-0.2,0.3
	c0,0.2,0.2,0.2,0.7,0.1c0.3-0.1,0.6-0.2,0.9-0.4c0.4-0.2,0.7-0.4,0.7-0.4c0-0.1,0.1-0.2,0.1-0.2c0.1,0,0.1,0,0.2,0c0,0,0,0.1,0,0.1
	c0,0.1,0.3-0.1,0.7-0.3c1.5-0.8,2.7-1.7,3.9-2.6c2.6-1.9,5-3.6,10.6-4.9c0.3-0.1,0.5-0.4,0.5-0.7c-0.1-0.3-0.4-0.5-0.7-0.5
	C93.6,13.9,92.2,14.3,90.9,14.8 M76.7,24c0.3-0.1,0.3-0.2,0.1-0.2c-0.2,0-0.4-0.1-0.5,0c-0.1,0-0.1,0.1-0.1,0.2
	C76.1,24.1,76.4,24.1,76.7,24 M80.8,31.7C80.9,31.6,80.9,31.6,80.8,31.7C80.9,31.6,80.8,31.6,80.8,31.7
	C80.8,31.6,80.8,31.6,80.8,31.7C80.8,31.7,80.8,31.7,80.8,31.7 M77.1,28.4C77.1,28.4,77,28.4,77.1,28.4C77,28.4,77,28.4,77.1,28.4
	C77.1,28.4,77.1,28.4,77.1,28.4 M80.4,30.7c0,0,0.1,0.1,0.1,0.1c0,0,0.1-0.1,0.1-0.2c0-0.1,0-0.1-0.1-0.1
	C80.5,30.5,80.4,30.6,80.4,30.7 M81.8,16.8c0,0,0.1,0,0.1,0s0.1-0.1,0-0.1C81.9,16.7,81.8,16.7,81.8,16.8
	C81.8,16.8,81.8,16.8,81.8,16.8 M76.2,27.8C76.2,27.8,76.2,27.8,76.2,27.8C76.1,27.8,76.1,27.8,76.2,27.8 M9.9,39.2L9.9,39.2
	L9.9,39.2L9.9,39.2z M31.6,38.3c0.1-0.1,0.3-0.2,0.4-0.2C32.5,38.5,31.1,38.8,31.6,38.3 M31.2,38.2c0.2-0.2,0.4,0.4,0.3,0.5
	C31.3,38.9,30.9,38.4,31.2,38.2 M12.8,38.6c0.1-0.1,0.3-0.2,0.4-0.2C13.8,38.7,12.4,39.1,12.8,38.6 M12.5,38.4
	c0.2-0.2,0.4,0.4,0.3,0.5C12.6,39.1,12.2,38.7,12.5,38.4 M10.8,38.4c0-0.1,0.1-0.2,0.2-0.1C11.3,38.5,10.5,38.8,10.8,38.4
	 M32.8,38.1c0.2-0.1,0.2,0.1,0.3,0c0.1-0.1,0.1-0.5,0-0.7c-0.1,0-0.2,0.1-0.3,0.1c-0.1,0.2-0.2,0.5-0.4,0.3c0,0,0-0.1-0.1-0.1
	c-0.6,0.2-1.2,0.4-1.8,0.6c-0.1,0.1-0.1,0.1-0.1,0c-0.3,0.1-0.7,0.2-1,0.3c-5.2,1.2-8.1,0.9-11,0.4c0,0,0,0,0,0
	c-0.2,0-0.4-0.1-0.6-0.1c-1-0.2-2-0.3-3.1-0.4c-0.1,0.1-0.1,0.2-0.1,0.2c0,0,0.4,0.1,0.3,0.2C14.7,39,14.3,39,14,38.8c0,0,0,0,0,0
	c-0.1-0.1-0.2-0.2-0.2-0.2c0.1,0.1,0.3,0,0.3-0.1c0,0,0-0.1-0.1-0.1c0,0,0,0,0.1,0c-0.7-0.1-1.4-0.1-2.2-0.1c0,0.2-0.2,0.4-0.3,0.1
	c0,0.1,0.1,0,0.1-0.1c-0.4,0-0.8,0-1.2,0.1c0,0.1-0.1,0.2-0.2,0.2c-0.2,0,0-0.1-0.1-0.2c0,0,0,0-0.1,0c-1.3,0.1-2.9,0.4-4.6,0.8
	c-0.3,0.1-0.5,0.4-0.5,0.7c0.1,0.3,0.4,0.5,0.7,0.5c1.5-0.4,2.9-0.6,4.1-0.7c0,0,0,0,0,0c-0.2-0.2,0-0.4,0-0.4c0,0,0,0,0,0
	c-0.1-0.1,0-0.1,0,0c0,0,0,0,0,0l0,0l0,0c0.1,0,0.2,0.1,0.2,0.1c0.1,0,0.2-0.2,0.3-0.3c0,0,0.6,0.1,0.6,0.1c0.1,0.2-0.1,0.3-0.1,0.3
	c0.3,0.1,0.2-0.4,0.4-0.3c0,0,0.2,0.3,0.3,0.4c1.9-0.1,3.5,0.1,5,0.4c0,0,0,0,0,0c0.2-0.2,0.2,0,0.3,0.1c0.1,0,0.1,0,0.1,0
	c0.2-0.1,0.5-0.2,0.5-0.2c0.1,0.1,0.1,0.2,0,0.3c3.1,0.5,6.3,1,12.1-0.3c0-0.1,0-0.1,0-0.2c0,0-0.7-0.3-0.8-0.3
	c-0.1,0.1,0.1,0.4-0.1,0.2c-0.2-0.2,0-0.4,0-0.4c0,0,0,0,0,0c-0.1-0.1,0-0.1,0,0c0,0,0,0,0,0c0,0,0,0,0,0l0,0c0.1,0,0.2,0.1,0.2,0.1
	c0.1,0,0.2-0.2,0.3-0.3c0,0,0.6,0.1,0.6,0.1c0.1,0.2-0.1,0.3-0.1,0.3c0.3,0.1,0.2-0.4,0.4-0.3c0,0,0.4,0.4,0.4,0.5
	c0,0.1,0,0.1,0,0.2c0.5-0.1,0.9-0.2,1.3-0.4c-0.1-0.1-0.3-0.3-0.2-0.3c0.1-0.1,0.3-0.1,0.5-0.2c0.1,0,0.2-0.1,0.3-0.1c0,0,0,0,0.1,0
	c0,0,0,0-0.1,0c0,0.1,0,0.3,0.1,0.4c0.2-0.1,0.5-0.2,0.7-0.2C32.6,38.6,32.2,38.3,32.8,38.1 M21.1,41.1
	C20.7,41.2,21.1,41.4,21.1,41.1 M19.9,42.5C19.8,42.7,20.1,42.6,19.9,42.5C19.9,42.5,19.9,42.5,19.9,42.5 M28.6,38.9L28.6,38.9
	C28.6,38.9,28.6,38.9,28.6,38.9 M21.5,42c0.1-0.1,0.2-0.1,0.2-0.2C21.6,41.8,21.5,41.9,21.5,42 M17.5,41.9c0,0-0.1,0.1,0,0.1
	C17.6,42.1,17.6,41.8,17.5,41.9 M22.2,43.3c0.1,0,0.1,0,0.2-0.1C22.4,43.1,22.2,43.2,22.2,43.3 M23.3,42.5c-0.1,0.1-0.2,0.2-0.1,0.4
	c0.1,0.1,0.3,0,0.4-0.1c0,0,0-0.3,0-0.3C23.5,42.4,23.4,42.4,23.3,42.5 M16.9,41.9c0,0-0.1-0.2-0.1-0.1
	C16.7,41.9,16.8,41.9,16.9,41.9 M23.4,41.8c-0.1,0.1-0.3-0.1-0.4,0c0,0,0,0.2,0.1,0.2C23.1,42,23.5,41.9,23.4,41.8 M23.2,41.4
	c0,0-0.1,0.1,0,0.1C23.3,41.5,23.3,41.3,23.2,41.4 M22.6,41.1c-0.1,0-0.1,0-0.1,0.1C22.5,41.2,22.6,41.2,22.6,41.1 M24.3,43
	C24.3,42.9,24.2,43.1,24.3,43 M23.3,41c-0.1-0.1-0.3,0.1-0.3,0.2C23.1,41.3,23.4,41.1,23.3,41"/>
</svg>
